<?xml version="1.0" standalone="no"?>
<!DOCTYPE svg PUBLIC "-//W3C//DTD SVG 1.1//EN" "http://www.w3.org/Graphics/SVG/1.1/DTD/svg11.dtd" >
<svg xmlns="http://www.w3.org/2000/svg">
<metadata>
This is a custom SVG webfont generated by Font Squirrel.
Copyright   : Converted by ALLTYPE
</metadata>
<defs>
<font id="GillSansBoldRegular" horiz-adv-x="1130" >
<font-face units-per-em="2048" ascent="1638" descent="-410" />
<missing-glyph horiz-adv-x="569" />
<glyph unicode=" "  horiz-adv-x="569" />
<glyph unicode="&#x09;" horiz-adv-x="569" />
<glyph unicode="&#xa0;" horiz-adv-x="569" />
<glyph unicode="!" horiz-adv-x="555" d="M100 158q0 74 52.5 126t126.5 52v2q74 -2 126 -54.5t52 -125.5q0 -74 -52.5 -125t-125.5 -51q-74 0 -126.5 51t-52.5 125zM106 1192q0 106 45.5 163.5t127.5 57.5t126 -56.5t44 -164.5q0 -55 -9.5 -142t-23.5 -182q-6 -35 -11.5 -68.5t-11.5 -66.5q-14 -84 -26.5 -148.5 t-20.5 -90.5q-2 -10 -5 -19.5t-7 -15.5q-8 -27 -20.5 -33t-34.5 -6v2q-27 -2 -39.5 6t-22.5 39q-2 8 -5 17.5t-5 21.5q-6 29 -19.5 90t-27.5 139q-8 45 -16.5 94.5t-14.5 98.5q-10 70 -16.5 138.5t-6.5 125.5z" />
<glyph unicode="&#x22;" horiz-adv-x="980" d="M109 1219v247h276v-247l-49 -275h-178zM596 1219v247h276v-247l-49 -275h-178z" />
<glyph unicode="#" horiz-adv-x="1196" d="M-12 207v223h194l56 268h-250v224h297l77 370h232l-78 -370h315l78 370h228l-78 -370h151v-224h-196l-56 -268h252v-223h-301l-78 -371h-227l76 371h-313l-76 -371h-234l78 371h-147zM414 430h313l55 268h-313z" />
<glyph unicode="$" horiz-adv-x="1110" d="M92 975q0 145 103.5 245.5t269.5 118.5v76h172v-74q74 -4 155.5 -31.5t163.5 -74.5v2v-252q-33 23 -63.5 42.5t-61.5 33.5q-45 23 -92 36t-102 21v-330q186 -59 284.5 -167.5t106.5 -227.5v-11v-11q0 -150 -102.5 -254.5t-288.5 -134.5v-226h-172v226q-35 4 -78 15 t-88 28q-39 16 -78 33.5t-69 35.5q-12 6 -23.5 13.5t-22.5 13.5v244q78 -61 149 -99.5t140 -58.5q16 -6 33.5 -9t36.5 -8v396q-205 45 -289 152.5t-84 236.5zM328 987q0 -47 34.5 -82t102.5 -57v2v270q-63 -16 -100 -51t-37 -82zM637 197q72 14 115 58t43 101 q0 59 -41 103.5t-117 70.5v2v-335z" />
<glyph unicode="%" horiz-adv-x="1472" d="M49 1083q0 139 96.5 234.5t233.5 95.5t233.5 -95t96.5 -235v2q0 -137 -96.5 -234t-233.5 -97t-233.5 97t-96.5 232zM160 -16l983 1431h164l-977 -1431h-170zM233 1083q0 -61 43 -107t103 -46q61 0 103 45t42 108v2q0 61 -43 106.5t-102 45.5q-61 0 -103.5 -44t-42.5 -110 zM762 309q0 139 96 234.5t234 95.5q137 0 233 -95t96 -235v2q0 -137 -96 -233t-233 -96t-233.5 96t-96.5 231zM946 309q0 -61 43 -107t103 -46q61 0 103 45t42 108v2q0 61 -43 106.5t-102 45.5q-61 0 -103.5 -44t-42.5 -110z" />
<glyph unicode="&#x26;" horiz-adv-x="1536" d="M80 348q0 121 75.5 217.5t237.5 177.5q-29 41 -52.5 77t-39.5 73t-25.5 76t-9.5 84q0 158 121 259t307 101q178 0 291 -93t113 -239q0 -100 -66.5 -191t-193.5 -167l190 -217q47 45 87 101.5t73 115.5v2h299q-61 -143 -129 -244.5t-152 -175.5l281 -305h-424l-102 111 q-104 -68 -212 -98.5t-227 -30.5q-190 0 -316 104t-126 262zM408 375q0 -68 52 -116t124 -48q27 0 57.5 7t60.5 20q25 10 49.5 22t47.5 29v2l-248 274q-29 -20 -52.5 -38.5t-39.5 -39.5q-27 -27 -39 -55t-12 -57zM567 1075q0 -23 13.5 -51.5t33.5 -58.5q14 -18 33 -38 t39 -38v2q27 14 48.5 29.5t37.5 29.5q27 27 40 54.5t13 60.5q0 51 -35.5 84t-93.5 33q-57 0 -93 -30t-36 -77z" />
<glyph unicode="'" horiz-adv-x="491" d="M109 1219v247h276v-247l-49 -275h-178z" />
<glyph unicode="(" horiz-adv-x="788" d="M92 440v16v15v28q0 13 2 27q14 256 143.5 495t327.5 392l211 2q-207 -231 -285.5 -464.5t-78.5 -479.5v2q0 -176 36.5 -341t131.5 -329q37 -68 86 -136t110 -138h-211q-207 162 -336 405.5t-137 505.5z" />
<glyph unicode=")" horiz-adv-x="788" d="M12 -471q72 82 128.5 164t97.5 164q76 150 107.5 302t31.5 312v2q0 244 -79 477.5t-286 462.5l211 2q199 -156 328 -394.5t143 -494.5q2 -14 2 -27v-28q0 -268 -130 -520t-343 -422h-211z" />
<glyph unicode="*" horiz-adv-x="960" d="M51 1096l4 16q2 8 6 16l62 119q4 4 7 10l5 11q14 18 32.5 12t57.5 -47l203 -207l25 23l-91 290l-4 17q-2 8 -2 14q0 23 15.5 33t48.5 10l119 2q35 -2 50 -12t15 -33q0 -6 -1 -14t-5 -19l-90 -288l24 -23l203 209q23 20 38 32.5t28 12.5q4 0 6 -1l6 -3q6 -6 12 -14.5 t13 -22.5l51 -90q10 -20 15 -34.5t5 -24.5q-2 -16 -12 -26.5t-33 -16.5l-311 -68v-4l311 -68q23 -6 34 -19.5t9 -31.5q0 -8 -3 -20.5t-11 -24.5l-53 -94q-8 -16 -15.5 -26.5t-13.5 -14.5q-4 -2 -7 -3t-7 -1q-8 0 -18.5 8t-26.5 22l-220 228l-24 -23l90 -291q4 -12 5 -20 t1 -16q0 -20 -15.5 -30.5t-43.5 -10.5l-125 2q-31 -2 -47.5 6t-16.5 33q0 8 2 16t4 18l91 293l-25 23l-203 -209q-23 -25 -39 -37t-28 -10q-4 0 -8.5 2t-8.5 6q-6 4 -10 10t-8 15l-57 110q-6 10 -9.5 22.5t-3.5 20.5q0 16 11.5 28.5t31.5 16.5l312 70v4l-312 70 q-20 4 -32.5 16.5t-12.5 30.5z" />
<glyph unicode="+" horiz-adv-x="1196" d="M86 592v262h381v381h262v-381h381v-262h-381v-381h-262v381h-381z" />
<glyph unicode="," horiz-adv-x="555" d="M90 129q0 72 48 117t120 45q90 0 147.5 -65.5t57.5 -168.5q0 -152 -104.5 -270.5t-256.5 -132.5v63q37 33 62.5 90.5t32.5 118.5v12v11v8v8q0 4 -1 8t-1 9q-53 20 -79 55t-26 92z" />
<glyph unicode="-" horiz-adv-x="681" d="M74 338v272h534v-272h-534z" />
<glyph unicode="." horiz-adv-x="555" d="M98 158q0 74 52.5 126t125.5 52v2q74 -2 126.5 -54.5t52.5 -125.5q0 -74 -52.5 -125t-126.5 -51t-126 51t-52 125z" />
<glyph unicode="/" horiz-adv-x="575" d="M0 -18l346 1433h211l-350 -1433h-207z" />
<glyph unicode="0" d="M90 696q0 354 133 535.5t344 181.5q236 0 353.5 -200.5t117.5 -510.5v3q0 -309 -110.5 -516t-356.5 -207q-242 0 -361.5 199.5t-119.5 514.5zM401 682q0 -213 36 -326.5t130 -113.5q102 0 131 133t29 350v2q0 205 -32.5 314.5t-129.5 109.5q-109 0 -136.5 -131 t-27.5 -338z" />
<glyph unicode="1" d="M406 0v1397h309v-1397h-309z" />
<glyph unicode="2" d="M111 0v39q37 41 71.5 87t69.5 91q70 96 133.5 188.5t114.5 169.5q80 121 113.5 203t37.5 156v14v13q0 82 -54 141t-132 59q-51 0 -109.5 -22.5t-117.5 -61.5q-27 -20 -54.5 -41.5t-54.5 -48.5v295q72 43 132.5 71.5t117.5 43.5q35 8 69.5 12t71.5 4q207 0 325 -105.5 t118 -291.5q0 -131 -95.5 -313.5t-283.5 -419.5l450 2v-285h-923z" />
<glyph unicode="3" d="M119 59v273q68 -49 125 -75t114 -34q12 -2 26.5 -3t29.5 -1q96 0 157.5 51.5t61.5 132.5q0 84 -60.5 139.5t-156.5 57.5v2v246q90 -2 138 45t54 102v9v8q0 72 -56 117t-142 45q-12 0 -25.5 -1.5t-26.5 -1.5q-49 -6 -98 -21t-106 -44v248q70 29 151.5 44t167.5 15 q199 0 323 -95t124 -247q0 -100 -52.5 -184t-154.5 -139q129 -49 187 -144.5t58 -214.5q0 -186 -135 -296.5t-362 -110.5q-20 0 -41 1t-41 3q-70 8 -137.5 26t-122.5 47z" />
<glyph unicode="4" d="M84 344v223l657 848h197v-848h94v-223h-94v-344h-309v344h-545zM330 567h299v381h-4z" />
<glyph unicode="5" d="M131 55v256q80 -47 153.5 -69.5t143.5 -22.5q96 0 158.5 55.5t62.5 139.5q0 94 -75.5 147t-213.5 53q-35 0 -74.5 -4t-82.5 -12v799h725v-281h-447v-260h25h22q217 -2 332 -132t115 -300q0 -203 -137.5 -322.5t-368.5 -119.5q-27 0 -54.5 2t-56.5 6q-68 8 -129 25t-98 40 z" />
<glyph unicode="6" d="M90 475v20v17q6 117 52 238.5t139 271.5l241 393h344l-323 -528q12 2 23.5 4t23.5 4q12 0 23.5 1t23.5 1q143 0 261 -112.5t118 -327.5q0 -205 -131 -340t-332 -135q-205 0 -334 136t-129 357zM401 444q0 -96 42 -149t116 -53q72 0 115 56t43 151v2q0 92 -44 149t-116 57 t-114 -57.5t-42 -155.5z" />
<glyph unicode="7" d="M131 1118v279h924v-17l-504 -1398l-279 106l375 1030h-516z" />
<glyph unicode="8" d="M98 395q0 121 52.5 206t158.5 134q-92 59 -132 129t-40 170q0 170 117 274.5t307 104.5q203 0 308.5 -103.5t121.5 -226.5q2 -14 3 -26.5t1 -24.5v2q0 -100 -43 -174t-127 -125q104 -53 156.5 -138t52.5 -200q0 -188 -128 -301.5t-343 -113.5q-207 0 -336 114.5 t-129 298.5zM410 408q0 -100 44 -162t115 -62q70 0 112 58.5t42 156.5v2q0 100 -42 161t-114 61t-114.5 -58.5t-42.5 -156.5zM436 1018q0 -90 36 -143.5t97 -53.5q59 0 93 53.5t34 147.5v2q0 88 -33.5 136t-97.5 48q-59 0 -94 -50t-35 -140z" />
<glyph unicode="9" d="M102 930q0 207 133.5 345t331.5 138q199 0 330 -138t131 -349q0 -20 -1 -42t-3 -44q-12 -106 -55 -217t-125 -244l-246 -397h-342l322 524q-25 -8 -48.5 -11t-46.5 -3q-158 0 -269.5 129t-111.5 309zM401 940q0 -94 44 -152.5t116 -58.5q68 0 112 59.5t44 149.5v2 q0 96 -42 153.5t-114 57.5q-70 0 -115 -59.5t-45 -151.5z" />
<glyph unicode=":" horiz-adv-x="555" d="M98 158q0 74 52.5 126t125.5 52v2q74 -2 126.5 -54.5t52.5 -125.5q0 -74 -52.5 -125t-126.5 -51t-126 51t-52 125zM98 764q0 74 52.5 126t125.5 52v2q74 -2 126.5 -54t52.5 -126t-52.5 -126t-126.5 -52t-126 52t-52 126z" />
<glyph unicode=";" horiz-adv-x="555" d="M90 129q0 72 48 117t120 45q90 0 147.5 -65.5t57.5 -168.5q0 -152 -104.5 -270.5t-256.5 -132.5v63q37 33 62.5 90.5t32.5 118.5v12v11v8v8q0 4 -1 8t-1 9q-53 20 -79 55t-26 92zM98 764q0 74 52.5 126t125.5 52v2q74 -2 126.5 -54t52.5 -126t-52.5 -126t-126.5 -52 t-126 52t-52 126z" />
<glyph unicode="&#x3c;" horiz-adv-x="1196" d="M96 604v246l1006 436v-280l-703 -279l703 -278v-281z" />
<glyph unicode="=" horiz-adv-x="1196" d="M86 369v262h1024v-262h-1024zM86 815v262h1024v-262h-1024z" />
<glyph unicode="&#x3e;" horiz-adv-x="1196" d="M94 168v281l703 278l-703 279v280l1006 -436v-246z" />
<glyph unicode="?" horiz-adv-x="768" d="M51 1122l51 252q41 12 76 20.5t70 12.5q23 4 45 5t47 1q158 0 248 -79t90 -208q0 -117 -46 -199.5t-102 -152.5q-12 -12 -22 -25.5t-21 -25.5q-43 -55 -74.5 -114.5t-31.5 -133.5v-22q0 -25 -14.5 -30t-49.5 -5q-20 0 -32.5 4t-20.5 12q-4 4 -11 18.5t-13 34.5 q-8 20 -15.5 46t-11.5 53q-4 16 -5 31.5t-1 29.5q0 76 24.5 136.5t55.5 111.5q25 41 45 79t30 75q2 8 3.5 18t1.5 20q0 49 -32 77t-89 28q-25 0 -44.5 -3t-37.5 -9q-20 -8 -43 -22.5t-51 -37.5zM145 158q0 74 52.5 126t126.5 52v2q74 -2 126 -54.5t52 -125.5 q0 -74 -52.5 -125t-125.5 -51q-74 0 -126.5 51t-52.5 125z" />
<glyph unicode="@" horiz-adv-x="2004" d="M61 469q0 66 8.5 134.5t24.5 135.5q70 283 303.5 516.5t689.5 233.5q379 0 614.5 -211t235.5 -553v-9v-9q-6 -266 -187 -486.5t-474 -220.5q-80 0 -123 26.5t-59 86.5q-57 -57 -125 -85t-146 -28q-170 0 -277.5 115.5t-107.5 302.5q0 43 5.5 88t17.5 90q43 182 173 333.5 t341 151.5q88 0 157.5 -34.5t110.5 -100.5l25 113h264l-160 -758q-2 -16 -4 -27.5t-2 -21.5q2 -27 12.5 -38t26.5 -11q29 0 70 21.5t84 60.5q74 70 136 185.5t62 258.5q0 35 -4 73t-14 75q-43 162 -196.5 297t-471.5 135q-375 0 -564.5 -195.5t-240.5 -431.5 q-12 -53 -18 -106.5t-6 -104.5q0 -373 256 -547t589 -174q244 0 414 66.5t277 199.5v2h213q-106 -217 -333.5 -332.5t-545.5 -115.5q-55 0 -110.5 4t-112.5 14q-309 49 -568.5 255t-259.5 626zM696 414v2q0 -109 49.5 -172.5t131.5 -63.5q109 0 174 84t98 185 q20 63 29.5 121.5t9.5 97.5q0 109 -51.5 171t-135.5 62q-125 0 -198.5 -114.5t-95.5 -251.5q-6 -31 -8.5 -61.5t-2.5 -59.5z" />
<glyph unicode="A" horiz-adv-x="1599" d="M6 0l563 1397h404l620 -1397h-374l-115 276h-625l-104 -276h-369zM571 520h430l-225 543z" />
<glyph unicode="B" horiz-adv-x="1429" d="M156 0v1397h604q207 -2 314.5 -86t135.5 -187q6 -20 9.5 -39.5t3.5 -40.5q0 -88 -51.5 -161.5t-139.5 -116.5q150 -39 223.5 -137.5t73.5 -220.5q0 -33 -5 -68t-17 -72q-35 -102 -140.5 -185t-330.5 -83h-680zM504 256h196h14q134 0 189 39q57 41 58 131q0 78 -60.5 118 t-152.5 40l-244 2v-330zM504 842h182h8q84 0 124 42q42 44 46 97v5v5v5v5q-4 51 -46 94.5t-132 43.5l-182 2v-299z" />
<glyph unicode="C" horiz-adv-x="1579" d="M96 692q0 281 219.5 501t620.5 220q145 0 274 -30.5t232 -92.5v-309q-115 63 -233.5 102t-247.5 39q-223 0 -364.5 -118.5t-141.5 -305.5q0 -186 140 -307t357 -121q59 0 111.5 8.5t103.5 22.5q66 20 135.5 51t155.5 72v2v-305q-66 -35 -124 -59.5t-115 -41.5 q-74 -20 -149 -29t-161 -9q-408 0 -610.5 220t-202.5 490z" />
<glyph unicode="D" horiz-adv-x="1642" d="M154 0v1397h616q383 -2 577.5 -209t194.5 -494q0 -301 -196.5 -497.5t-614.5 -196.5h-577zM502 256h227h8q225 0 324 113q100 115 119 252q2 18 3 37.5t1 37.5q0 180 -105.5 311.5t-353.5 131.5l-223 2v-885z" />
<glyph unicode="E" horiz-adv-x="1300" d="M160 0v1397h1016v-256h-668v-293h637v-256h-637v-336h682v-256h-1030z" />
<glyph unicode="F" horiz-adv-x="1236" d="M156 0v1397h962v-256h-614v-312h614v-256h-614v-573h-348z" />
<glyph unicode="G" horiz-adv-x="1665" d="M96 694q0 319 234.5 519t607.5 200q158 0 302 -31.5t249 -83.5v2v-305q-133 63 -263 95t-259 32q-256 0 -373 -117.5t-135 -259.5q-2 -16 -3 -31.5t-1 -31.5q0 -186 133 -299t350 -113q27 0 49.5 1t44.5 5q29 4 60.5 14.5t76.5 28.5v166h-202v256h551v-571 q-66 -70 -195 -119t-272 -63q-31 -2 -60.5 -4t-60.5 -2q-365 0 -599.5 199.5t-234.5 512.5z" />
<glyph unicode="H" horiz-adv-x="1705" d="M158 0v1397h348v-561h696v561h348v-1397h-348v565h-696v-565h-348z" />
<glyph unicode="I" horiz-adv-x="681" d="M168 0v1397h348v-1397h-348z" />
<glyph unicode="J" horiz-adv-x="681" d="M-66 -129q16 -4 30 -4h26q100 0 146 68.5t46 185.5v1276h348v-1268q0 -127 -29.5 -233.5t-107.5 -182.5q-57 -59 -141 -90t-217 -31q-23 0 -47.5 1t-50.5 4z" />
<glyph unicode="K" horiz-adv-x="1472" d="M154 0v1397h348v-633h4l440 633h383l-455 -656l617 -741h-436l-553 655v-655h-348z" />
<glyph unicode="L" horiz-adv-x="1259" d="M156 0v1397h348v-1141h717v-256h-1065z" />
<glyph unicode="M" horiz-adv-x="1812" d="M156 0v1397h303l448 -518l449 518h303v-1397h-348v872l-377 -438h-53l-377 438v-872h-348z" />
<glyph unicode="N" horiz-adv-x="1728" d="M158 0v1397h319l746 -854v854h348v-1397h-293l-772 895v-895h-348z" />
<glyph unicode="O" horiz-adv-x="1792" d="M96 684v7v5q0 25 2 49.5t6 51.5q35 231 236 423.5t557 192.5q352 0 552 -190.5t239 -417.5q4 -29 6 -55.5t2 -53.5v2q0 -270 -211 -493t-588 -223q-379 0 -588 219t-213 483zM455 696q0 -193 121.5 -309.5t320.5 -116.5t319.5 117t120.5 309v2q0 190 -120.5 307 t-319.5 117t-320.5 -116.5t-121.5 -309.5z" />
<glyph unicode="P" horiz-adv-x="1343" d="M170 0v1397h623q209 -2 320.5 -108.5t135.5 -233.5l4 -37q2 -18 2 -37q0 -16 -1 -33.5t-5 -34.5q-20 -133 -130.5 -243.5t-323.5 -110.5l-277 2v-561h-348zM518 817h162h11q112 0 158 40q48 42 48 120q0 90 -57.5 126t-198.5 36l-123 2v-324z" />
<glyph unicode="Q" horiz-adv-x="1792" d="M96 688v12v11q10 264 224.5 483t580.5 219q338 0 533.5 -178t246.5 -391q8 -37 12.5 -73t4.5 -71q0 -231 -144.5 -419.5t-375.5 -260.5q55 -31 119.5 -53t129.5 -35q33 -6 67 -9t65 -3q37 0 70.5 4t64.5 15l22 -29l-272 -232q-37 2 -74 8.5t-76 12.5q-164 37 -323.5 117 t-300.5 184q-27 2 -54.5 10t-54.5 19q-174 68 -319.5 240.5t-145.5 418.5zM455 692v2q0 -195 121.5 -312.5t320.5 -117.5q186 0 314 111.5t128 316.5q0 211 -131 320.5t-311 109.5q-199 0 -320.5 -117.5t-121.5 -312.5z" />
<glyph unicode="R" horiz-adv-x="1386" d="M156 0v1397h624q215 -2 336 -124t121 -280q0 -115 -59.5 -200.5t-180.5 -141.5q43 -20 76 -55t64 -86q47 -78 100 -202t143 -308h-383q-47 90 -82.5 177t-70.5 161q-49 100 -103.5 163.5t-136.5 63.5l-100 2v-567h-348zM504 823h184h8q67 0 123 34q59 36 60 124 q0 78 -50.5 118t-148.5 40l-176 2v-318z" />
<glyph unicode="S" horiz-adv-x="1236" d="M88 1012q0 182 145.5 291.5t387.5 109.5q35 0 67.5 -2t65.5 -6q82 -10 163.5 -34.5t176.5 -65.5v2v-273q-152 66 -252.5 94.5t-190.5 28.5q-94 0 -149.5 -30.5t-55.5 -84.5q0 -53 52.5 -86.5t130.5 -62.5q39 -16 83 -31.5t91 -34.5q133 -55 243.5 -148t110.5 -276 q0 -201 -151.5 -311t-384.5 -110q-160 0 -260.5 30.5t-190.5 75.5q-12 6 -25.5 13.5t-27.5 13.5v303q109 -74 191.5 -114t160.5 -56q31 -6 61.5 -9t63.5 -3q100 0 152.5 33.5t52.5 95.5q0 59 -57.5 96t-141.5 67q-37 14 -77 27.5t-79 30.5q-135 53 -245.5 145.5 t-110.5 280.5z" />
<glyph unicode="T" horiz-adv-x="1472" d="M57 1141v256h1360v-256h-506v-1141h-348v1141h-506z" />
<glyph unicode="U" horiz-adv-x="1685" d="M143 600v797h349v-803q0 -152 98 -238t248 -86q139 0 246.5 80t107.5 266v781h348v-793q0 -348 -206 -485t-492 -137q-303 0 -501 147t-198 471z" />
<glyph unicode="V" horiz-adv-x="1472" d="M0 1397h379l369 -797l350 797h375l-646 -1415h-151z" />
<glyph unicode="W" horiz-adv-x="2390" d="M-2 1397h369l329 -772l359 772h280l359 -772l327 772h369l-612 -1415h-150l-434 911l-432 -911h-150z" />
<glyph unicode="X" horiz-adv-x="1665" d="M8 0l592 723l-559 674h451l333 -412l328 412h442l-546 -674l606 -723h-451l-379 461l-372 -461h-445z" />
<glyph unicode="Y" horiz-adv-x="1449" d="M0 1397h422l303 -439l305 439h420l-551 -744v-653h-348v653z" />
<glyph unicode="Z" horiz-adv-x="1429" d="M8 0l768 1141h-715v256h1303l-762 -1141h762v-256h-1356z" />
<glyph unicode="[" horiz-adv-x="897" d="M172 -453v1850h686v-223h-389v-1403h389v-224h-686z" />
<glyph unicode="\" horiz-adv-x="575" d="M14 1415h211l346 -1433h-206z" />
<glyph unicode="]" horiz-adv-x="897" d="M39 -229h389v1403h-389v223h686v-1850h-686v224z" />
<glyph unicode="^" horiz-adv-x="1196" d="M115 598l377 799h221l366 -799h-284l-197 489l-197 -489h-286z" />
<glyph unicode="_" horiz-adv-x="1024" d="M-12 -154h1048v-102h-1048v102z" />
<glyph unicode="`" horiz-adv-x="681" d="M16 1384h338l152 -299h-152z" />
<glyph unicode="a" horiz-adv-x="1087" d="M68 211q0 119 63.5 181.5t200.5 115.5q59 23 133 45t164 51v9v10q0 59 -37 99t-127 40q-25 0 -51.5 -4t-53.5 -10q-66 -18 -129 -55.5t-114 -88.5v244q92 55 194.5 84t214.5 29q178 0 289 -66t111 -221v-428q0 -37 13 -52.5t36 -15.5q16 0 38.5 8.5t73.5 44.5v2v-165 q-31 -20 -65.5 -36t-69.5 -26q-39 -10 -75.5 -17t-67.5 -7q-74 0 -112 23.5t-54 80.5q-61 -41 -116.5 -64.5t-108.5 -31.5q-20 -4 -42 -6t-44 -2q-113 0 -188.5 70.5t-75.5 158.5zM369 256q0 -41 28.5 -70.5t67.5 -29.5q12 0 24.5 2t22.5 4q31 8 60.5 24.5t56.5 40.5v2v228 q-39 -16 -73 -29.5t-60 -26.5q-63 -29 -95 -62.5t-32 -82.5z" />
<glyph unicode="b" horiz-adv-x="1193" d="M119 0v1397h297v-506q37 18 66.5 32.5t58.5 22.5t57.5 11.5t60.5 3.5q205 0 333 -135.5t128 -352.5t-123 -354t-317 -137q-70 0 -136.5 21.5t-127.5 66.5v-70h-297zM416 260q31 -29 57.5 -45t52.5 -27q16 -4 32.5 -7t33.5 -3q104 0 165.5 78t61.5 221q0 152 -69.5 218.5 t-161.5 66.5q-14 0 -27.5 -1t-28.5 -5q-27 -6 -54 -20.5t-62 -39.5v2v-438z" />
<glyph unicode="c" horiz-adv-x="1024" d="M82 467q0 217 150.5 355.5t383.5 138.5q37 0 79 -5.5t85 -13.5q41 -8 80 -19.5t74 -23.5v-219q-25 10 -51.5 21.5t-53.5 19.5q-35 10 -70.5 15t-66.5 5q-133 0 -213 -73.5t-80 -198.5t78 -202t205 -77h11h12q47 4 101 18.5t142 47.5v2v-213q-88 -35 -165.5 -49 t-153.5 -14q-248 0 -397.5 132t-149.5 353z" />
<glyph unicode="d" horiz-adv-x="1193" d="M72 471q0 217 128 353.5t330 136.5q66 0 126.5 -15.5t119.5 -44.5v496h297v-1397h-297v76q-14 -12 -27.5 -22.5t-25.5 -18.5q-49 -29 -99.5 -41t-109.5 -12q-190 0 -316 139t-126 350zM373 465q0 -129 61.5 -208t165.5 -79q27 0 50.5 5t45.5 18q20 8 40 22.5t40 32.5v2 v451q-20 12 -45.5 24t-54.5 19q-16 6 -33.5 8t-32.5 2q-113 0 -175 -78t-62 -219z" />
<glyph unicode="e" d="M76 467q0 217 140 355.5t357 138.5q201 0 344.5 -132.5t143.5 -375.5v-16v-15l-678 2q8 -127 90 -197.5t221 -70.5q33 0 62.5 4t58.5 10q53 14 107.5 44t121.5 77v2v-187q-10 -8 -19 -15t-17 -11q-119 -76 -226.5 -87t-158.5 -11q-248 0 -397.5 132t-149.5 353zM389 578 v2h410q-8 94 -63.5 149t-141.5 55q-88 0 -141.5 -54t-63.5 -152z" />
<glyph unicode="f" horiz-adv-x="618" d="M31 741v203h135v47q0 207 116.5 314.5t297.5 107.5q16 0 34.5 -1t36.5 -3q14 -2 27.5 -3t28.5 -3l28 -4q14 -2 25 -4v-238q-49 4 -73.5 7t-45.5 3h-7h-7q-70 0 -117 -35.5t-47 -130.5v-57h135v-203h-135v-741h-297v741h-135z" />
<glyph unicode="g" horiz-adv-x="1110" d="M57 -197q0 18 4.5 39t12.5 41q20 45 74.5 86t160.5 68v6q-47 12 -80.5 41t-33.5 80q0 49 31.5 76.5t68.5 42.5q20 8 38.5 12t33.5 8v6q-12 0 -24.5 3t-25.5 7q-82 25 -148.5 95.5t-66.5 183.5q0 29 7.5 64.5t25.5 74.5q37 76 127 140.5t262 64.5l561 2v-199h-135 q14 -25 23.5 -46t13.5 -42q6 -18 8 -35.5t2 -35.5q0 -63 -23.5 -115.5t-62.5 -91.5q-35 -35 -75.5 -56.5t-81.5 -31.5q-41 -12 -82 -17.5t-76 -9.5q-55 -6 -91 -17t-36 -48t47 -48.5t119 -17.5q29 -2 61.5 -5t65.5 -7q63 -10 121.5 -30.5t101.5 -63.5q14 -14 25.5 -28.5 t19.5 -31.5q18 -33 24.5 -64.5t6.5 -56.5q0 -164 -135 -240.5t-365 -76.5q-256 0 -365.5 68.5t-132.5 152.5q-2 12 -4 26.5t-2 26.5zM332 -184q0 -53 62.5 -82t180.5 -29q98 0 155.5 36t57.5 83q0 51 -60 77.5t-171 26.5q-104 0 -164.5 -30.5t-60.5 -81.5zM379 594v2 q0 -72 51 -122t121 -50q72 0 121 53t49 127q0 66 -46 114t-124 48q-74 0 -123 -50t-49 -122z" />
<glyph unicode="h" horiz-adv-x="1193" d="M127 0v1397h297v-592h4q66 80 138.5 118t160.5 38h3h3q127 -2 233.5 -86t106.5 -275v-600h-297v539q0 104 -42 154t-111 50q-27 0 -51.5 -8t-47.5 -26q-25 -16 -49 -44t-51 -65v-600h-297z" />
<glyph unicode="i" horiz-adv-x="555" d="M113 1249q0 68 48 116t115 48v2q68 -2 116 -50t48 -116t-48 -116t-116 -48t-115.5 48t-47.5 116zM129 0v944h297v-944h-297z" />
<glyph unicode="j" horiz-adv-x="555" d="M-18 -203q82 14 117.5 73.5t35.5 172.5v901h297v-971q0 -190 -81 -288.5t-177 -133.5q-25 -10 -50.5 -15t-47.5 -7zM119 1249q0 68 48 116t116 48v2q68 -2 115.5 -50t47.5 -116t-48 -116t-115 -48q-68 0 -116 48t-48 116z" />
<glyph unicode="k" d="M129 0v1397h297v-920h4l367 467h348l-369 -467l385 -477h-364l-367 465h-4v-465h-297z" />
<glyph unicode="l" horiz-adv-x="555" d="M129 0v1397h297v-1397h-297z" />
<glyph unicode="m" horiz-adv-x="1961" d="M129 0v944h297v-121q39 33 79 59.5t79 45.5q41 16 83 24.5t87 8.5q123 0 206.5 -49.5t133.5 -151.5q29 33 55.5 59.5t52.5 46.5q63 49 127 72t137 23q162 0 265.5 -97.5t103.5 -259.5v-604h-297v553q0 100 -46 154.5t-128 54.5q-63 0 -122.5 -41t-111.5 -119v-602h-296 v559q0 109 -53.5 154t-116.5 49h-6h-5q-57 0 -115.5 -33t-111.5 -98v-631h-297z" />
<glyph unicode="n" horiz-adv-x="1193" d="M123 0v944h297v-135l9 9l9 9q66 70 135.5 102t153.5 32q23 0 46.5 -3.5t45.5 -7.5q94 -23 173 -103.5t79 -248.5v-598h-297v575q0 98 -42 142.5t-105 44.5q-25 0 -47.5 -6t-44.5 -21q-27 -18 -54.5 -49t-60.5 -80v-606h-297z" />
<glyph unicode="o" horiz-adv-x="1216" d="M76 471q0 242 162.5 366t371.5 124q33 0 66 -3.5t67 -11.5q150 -31 274 -143.5t124 -333.5v2q0 -211 -110.5 -319.5t-242.5 -145.5q-47 -12 -92 -18t-86 -6q-231 0 -382.5 133t-151.5 356zM393 471q0 -182 66.5 -248.5t150.5 -66.5q104 0 158.5 83t54.5 238v2 q0 137 -50 221t-163 84q-96 0 -156.5 -76.5t-60.5 -236.5z" />
<glyph unicode="p" horiz-adv-x="1193" d="M117 -471v1415h297v-82q63 51 128.5 75t141.5 24q184 0 311 -138.5t127 -341.5q0 -227 -127 -363t-338 -136q-14 0 -28.5 1t-30.5 3q-49 6 -96 20t-88 39v-516h-297zM414 242q23 -18 44 -29.5t42 -19.5q20 -8 41.5 -11.5t44.5 -3.5q109 0 172 78t63 209q0 135 -58 210 t-165 75q-18 0 -34.5 -2.5t-33.5 -6.5q-27 -8 -54 -24.5t-62 -42.5v2v-434z" />
<glyph unicode="q" horiz-adv-x="1193" d="M72 481q0 207 126 343.5t312 136.5q76 0 141.5 -24t126.5 -77v84h297v-1415h-297v518q-43 -29 -96 -44t-109 -19q-8 -2 -18 -2h-20q-209 0 -336 137t-127 362zM373 465q0 -131 62.5 -209t170.5 -78q27 0 50.5 4t45.5 15q18 6 37 17t39 26v2v434q-31 23 -56.5 38t-49.5 23 q-18 6 -38 9.5t-40 3.5q-106 0 -163.5 -75t-57.5 -210z" />
<glyph unicode="r" horiz-adv-x="917" d="M131 0v944h297v-270h4q66 145 140.5 216t160.5 71q8 0 16.5 -1.5t16.5 -1.5q35 -6 74 -25.5t90 -58.5l-82 -260q-57 35 -99 51.5t-77 16.5q-82 0 -138.5 -72.5t-105.5 -203.5v-406h-297z" />
<glyph unicode="s" horiz-adv-x="874" d="M76 670q0 131 108.5 211t282.5 80q68 0 123 -9.5t110 -29.5q16 -6 35 -13.5t37 -17.5v2v-211q-96 57 -183 79.5t-132 22.5q-8 0 -18.5 -1t-20.5 -3q-27 -4 -47.5 -19.5t-20.5 -49.5q0 -18 19.5 -33.5t50.5 -30.5q33 -16 76 -32.5t90 -36.5q86 -39 159.5 -105.5 t73.5 -185.5q0 -147 -100.5 -226t-284.5 -79q-74 0 -143.5 11t-118.5 27q-27 8 -46.5 15.5t-29.5 13.5v211q72 -33 146.5 -57.5t158.5 -24.5q66 0 105 18.5t39 51.5t-34 56.5t-83 43.5q-27 10 -57.5 21.5t-59.5 25.5q-88 37 -161.5 97.5t-73.5 177.5z" />
<glyph unicode="t" horiz-adv-x="831" d="M25 741v58l395 442h37v-297h344v-203h-344v-389q0 -72 37.5 -112.5t107.5 -40.5h13q7 0 16 2q39 2 79 14t91 39v-213q-51 -23 -95 -35t-85 -18q-25 -2 -47.5 -4t-47.5 -2q-147 0 -256.5 76.5t-109.5 275.5v407h-135z" />
<glyph unicode="u" horiz-adv-x="1193" d="M123 338v606h297v-584q0 -102 46 -142t103 -40q68 0 124.5 46t78.5 116v604h299v-944h-297v135q-4 -8 -9 -13l-11 -11q-66 -70 -134.5 -99.5t-150.5 -29.5q-139 0 -242.5 87t-103.5 269z" />
<glyph unicode="v" horiz-adv-x="1044" d="M4 944h318l200 -520l203 520h315l-434 -962h-166z" />
<glyph unicode="w" horiz-adv-x="1599" d="M-2 944h303l199 -520l211 520h180l209 -520l198 520h304l-424 -962h-142l-235 514l-238 -514h-139z" />
<glyph unicode="x" d="M8 0l385 483l-385 461h346l203 -272l193 272h346l-373 -461l401 -483h-344l-223 293l-215 -293h-334z" />
<glyph unicode="y" horiz-adv-x="1044" d="M2 944h317l199 -485l213 485h311l-632 -1397h-316l277 607z" />
<glyph unicode="z" horiz-adv-x="1067" d="M39 0l485 741h-438v203h922l-484 -741h484v-203h-969z" />
<glyph unicode="{" horiz-adv-x="788" d="M59 408v235q131 0 175.5 80t44.5 223v164q0 205 97 288t277 83l90 2v-240h-12q-135 -2 -164.5 -37t-29.5 -192q0 -174 -25 -288t-150 -202q125 -88 150 -201.5t25 -287.5q0 -156 29.5 -190.5t164.5 -34.5h12v-240h-90q-180 0 -277 83t-97 290v161q0 141 -44.5 221.5 t-175.5 82.5z" />
<glyph unicode="|" horiz-adv-x="575" d="M176 -453v1850h223v-1850h-223z" />
<glyph unicode="}" horiz-adv-x="788" d="M45 -190h12q135 0 165 34.5t30 190.5q0 174 24.5 287.5t149.5 201.5q-125 88 -149.5 202t-24.5 288q0 158 -29.5 192.5t-165.5 34.5l-12 2v240h90q182 -2 278.5 -85t96.5 -290v-160q0 -145 44 -225t175 -82v-231q-131 -4 -175 -84t-44 -224v-159q0 -207 -96.5 -290 t-278.5 -83h-90v240z" />
<glyph unicode="~" horiz-adv-x="1196" d="M33 356v2v269q70 55 128 89t113 46q23 6 43.5 8t42.5 2q66 0 131.5 -24.5t126.5 -55.5q63 -31 125 -55.5t119 -24.5q12 0 23.5 1t21.5 3q55 8 114.5 43t139.5 105v-264q-39 -41 -97 -76t-120 -55q-27 -8 -54.5 -13.5t-51.5 -5.5q-39 0 -82 11.5t-84 27.5 q-25 10 -48.5 20.5t-48.5 22.5q-63 29 -123.5 54.5t-107.5 25.5q-14 0 -28.5 -1t-28.5 -5q-55 -10 -113.5 -45t-140.5 -105z" />
<glyph unicode="&#xa1;" horiz-adv-x="555" d="M98 782q0 74 52.5 126.5t125.5 52.5q74 0 126.5 -52.5t52.5 -126.5t-52.5 -126t-126.5 -52v2q-74 -2 -126 50t-52 126zM106 -250q0 55 9.5 142.5t23.5 179.5q6 35 11.5 68.5t11.5 66.5q14 84 26.5 148.5t20.5 90.5q4 10 6 19.5t6 15.5q8 27 20.5 33t34.5 6v2 q27 -2 39.5 -10t22.5 -39q2 -8 5 -17.5t5 -21.5q6 -29 19.5 -90t27.5 -139q8 -45 16.5 -94.5t14.5 -98.5q10 -68 16.5 -136.5t6.5 -125.5q0 -106 -44.5 -163.5t-128.5 -57.5q-82 0 -126 56t-44 165z" />
<glyph unicode="&#xa2;" horiz-adv-x="1024" d="M84 463q0 209 143.5 353.5t393.5 144.5q23 0 45 -1.5t47 -5.5l106 340h146l-113 -362q10 -4 18.5 -7t16.5 -5l9 -4.5t11 -4.5l13 -4q6 -2 12 -6v-221q-16 6 -31 13l-27 14q-8 4 -16 7t-18 5q-10 4 -22.5 8t-26.5 8l-170 -534q16 -4 31.5 -5t29.5 -1q74 0 141.5 20.5 t122.5 46.5v-217q-25 -10 -46 -18.5t-44 -14.5q-61 -14 -130 -22t-173 -8l-117 -369h-145l123 387q-164 51 -247 174t-83 289zM393 469q0 -68 25.5 -123t73.5 -94v2l155 489q-113 -10 -183.5 -84.5t-70.5 -189.5z" />
<glyph unicode="&#xa3;" horiz-adv-x="1067" d="M96 -18q0 37 15.5 129t33.5 196q6 29 12.5 58.5t12.5 58.5q8 39 16.5 75t16.5 64l-92 2v244h157q43 143 93.5 266t127.5 201q49 49 107.5 81t118.5 46q23 6 44 8t42 2q12 0 24.5 -1t24.5 -3l119 -266q-27 4 -51.5 7t-47.5 3q-109 0 -189.5 -79t-123.5 -267l131 2v-244 h-199l-53 -266q12 2 21.5 4t17.5 2q6 2 12 2h13q49 0 87 -7t75 -15q35 -8 71.5 -15.5t83.5 -7.5q29 0 50.5 2t39.5 6t36 10.5t40 16.5v-274q-31 -16 -54.5 -23.5t-45.5 -11.5q-18 -4 -38 -5t-44 -1q-29 0 -71 7t-93 15q-51 10 -107.5 17.5t-113.5 7.5q-51 0 -94 -4.5 t-86 -12.5q-33 -6 -67 -13t-73 -17z" />
<glyph unicode="&#xa4;" d="M45 352l133 133q-27 39 -41 95.5t-14 117.5t15.5 115.5t39.5 99.5l-133 136l170 170l131 -132q47 20 98.5 37t120.5 17h20q9 0 19 -2q49 -4 96.5 -19.5t79.5 -34.5l133 136l174 -174l-133 -134q27 -49 41.5 -99t14.5 -116q0 -45 -8.5 -84t-22.5 -77l-12 -29 q-6 -14 -15 -29l133 -131l-170 -170l-135 135q-37 -25 -92 -42t-123 -17q-29 0 -59.5 4t-61.5 12q-25 6 -47 16.5t-45 22.5l-133 -131zM362 698q0 -84 59.5 -144t143.5 -60t144.5 60t60.5 144t-60.5 143.5t-144.5 59.5v2q-84 -2 -143.5 -61.5t-59.5 -143.5z" />
<glyph unicode="&#xa5;" d="M2 1466h309l250 -567h4l256 567h309l-315 -628h264v-224h-374v-118h374v-224h-374v-272h-283v272h-371v224h371v118h-371v224h260z" />
<glyph unicode="&#xa6;" horiz-adv-x="569" />
<glyph unicode="&#xa7;" horiz-adv-x="1067" d="M51 510q0 102 45 196.5t135 182.5q-33 49 -54 80.5t-30 60.5q-6 16 -9 34.5t-3 39.5q0 145 112.5 227t299.5 82q199 0 290 -66.5t91 -156.5q0 -63 -44 -107.5t-108 -44.5q-31 0 -52.5 9.5t-39.5 27.5q-14 14 -21.5 30.5t-11.5 35.5q-2 2 -2 4t-2 4q-10 35 -27.5 61.5 t-76.5 26.5q-51 0 -85 -29.5t-34 -72.5q0 -16 6 -32t19 -32q37 -47 111.5 -96t158.5 -109q111 -80 203 -186.5t92 -259.5v2q0 -68 -14.5 -122t-47.5 -107q-20 -33 -50 -69t-71 -75q33 -45 53.5 -77.5t28.5 -63.5q6 -20 9.5 -42t3.5 -46q0 -135 -105.5 -213t-292.5 -78 q-168 0 -278.5 62.5t-110.5 158.5q0 57 46 102.5t106 45.5q33 0 55.5 -10.5t34.5 -22.5q6 -6 12 -13.5t10 -15.5q8 -16 13.5 -31.5t9.5 -29.5q8 -31 23.5 -50.5t72.5 -19.5q53 0 85 26.5t32 69.5q0 35 -21.5 67t-58.5 62q-41 35 -98.5 71t-114.5 79q-111 76 -203 178 t-92 252zM313 590q0 -35 12.5 -66.5t34.5 -62.5q43 -57 126 -121t198 -152q23 25 37 46.5t20 44.5q6 16 9.5 32.5t3.5 32.5q0 45 -17.5 84t-50.5 76q-47 53 -125 111.5t-178 138.5v2q-14 -20 -26.5 -38t-20.5 -34q-12 -23 -17.5 -45t-5.5 -49z" />
<glyph unicode="&#xa8;" horiz-adv-x="681" d="M0 1214q0 55 39 94.5t94 39.5v2q55 -2 94 -41t39 -95q0 -55 -39 -94t-94 -39t-94 39t-39 94zM416 1214q0 55 39 94.5t94 39.5v2q55 -2 94 -41t39 -95q0 -55 -39 -94t-94 -39t-94 39t-39 94z" />
<glyph unicode="&#xa9;" horiz-adv-x="1515" d="M-6 727q0 317 223 541.5t541 224.5v2q317 -2 541.5 -226.5t224.5 -541.5t-224.5 -540.5t-541.5 -223.5t-540.5 223.5t-223.5 540.5zM143 727q0 -254 180.5 -435t434.5 -181q256 0 436 181t180 435q0 256 -180 435t-436 179v2q-254 -2 -434.5 -181t-180.5 -435zM381 721 q0 201 104.5 316.5t284.5 115.5q127 0 208 -59.5t126 -184.5l-162 -37q-27 70 -70 104t-108 34q-98 0 -152.5 -74t-54.5 -209q0 -133 52.5 -209t146.5 -76q70 0 116 43t70 129v2l162 -55q-39 -127 -125 -193.5t-211 -66.5q-176 0 -281.5 113.5t-105.5 306.5z" />
<glyph unicode="&#xaa;" horiz-adv-x="724" d="M45 975q0 86 80 128t178 68q18 6 38.5 11.5t39.5 11.5q6 0 12 2l13 4q0 47 -22 65.5t-71 18.5q-63 0 -121.5 -26.5t-113.5 -83.5v169q61 33 129.5 51.5t144.5 18.5q20 0 42 -1t44 -5q68 -10 125.5 -48t57.5 -122v-242q0 -23 4 -31t14 -8t33.5 10.5t50.5 26.5v2v-116 q-20 -14 -43 -23.5t-47 -17.5q-27 -8 -52.5 -12.5t-48.5 -4.5q-45 0 -74.5 14.5t-39.5 41.5q-29 -16 -56.5 -27.5t-54.5 -18.5q-20 -6 -40.5 -8t-41.5 -2q-76 0 -128 44t-52 110zM262 993q0 -23 14.5 -38t36.5 -15q25 0 48.5 10.5t44.5 24.5v2v121q-35 -12 -59.5 -22.5 t-41.5 -18.5q-25 -14 -34 -29t-9 -35z" />
<glyph unicode="&#xab;" horiz-adv-x="1216" d="M18 469l330 455h293l-326 -455l326 -455h-293zM571 469l330 455h293l-326 -455l326 -455h-293z" />
<glyph unicode="&#xac;" horiz-adv-x="569" />
<glyph unicode="&#xad;" horiz-adv-x="1024" />
<glyph unicode="&#xae;" horiz-adv-x="1515" d="M-6 727q0 317 223 541.5t541 224.5v2q317 -2 541.5 -226.5t224.5 -541.5t-224.5 -540.5t-541.5 -223.5t-540.5 223.5t-223.5 540.5zM143 727q0 -254 180.5 -435t434.5 -181q256 0 436 181t180 435q0 256 -180 435t-436 179v2q-254 -2 -434.5 -181t-180.5 -435zM412 319 v814h401q131 -2 193.5 -68t62.5 -162q0 -92 -58.5 -153.5t-160.5 -73.5v-2q0 -2 1 -2t3 -2q20 -6 37.5 -15.5t32.5 -25.5q20 -18 42.5 -53t57.5 -95l94 -162h-203l-65 134q-6 8 -12.5 19t-12.5 24q-8 14 -17 27.5t-20 25.5q-12 18 -25 34.5t-24 26.5l-4 4l-4 4 q-23 18 -49.5 25.5t-75.5 7.5l-31 2v-334h-163zM575 782h170q84 -2 117 33t33 78q0 53 -42 82t-126 29l-152 2v-224z" />
<glyph unicode="&#xaf;" horiz-adv-x="569" />
<glyph unicode="&#xb0;" horiz-adv-x="569" />
<glyph unicode="&#xb1;" horiz-adv-x="1196" d="M86 0v262h1024v-262h-1024zM86 737v262h381v381h262v-381h381v-262h-381v-381h-262v381h-381z" />
<glyph unicode="&#xb2;" horiz-adv-x="569" />
<glyph unicode="&#xb3;" horiz-adv-x="569" />
<glyph unicode="&#xb4;" horiz-adv-x="681" d="M178 1085l152 299h338l-338 -299h-152z" />
<glyph unicode="&#xb5;" horiz-adv-x="1259" d="M139 -360v1304h297v-461q0 -133 41 -219t148 -86q90 0 143 70.5t53 195.5v500h297v-944h-276v123h-4q-20 -63 -67.5 -96t-98.5 -41q-10 -2 -19.5 -3t-17.5 -1q-68 0 -118 34.5t-77 96.5l-4 2v-475h-297z" />
<glyph unicode="&#xb6;" d="M0 1047q0 164 102.5 290.5t341.5 126.5l684 2v-262h-112v-1607h-244v1607h-137v-1607h-244v1046q-186 12 -288.5 120t-102.5 284z" />
<glyph unicode="&#xb7;" horiz-adv-x="569" />
<glyph unicode="&#xb8;" horiz-adv-x="681" d="M205 -244h14h12q82 0 105.5 17.5t23.5 46.5q0 4 -1 9t-3 9q-6 14 -24.5 26.5t-55.5 12.5l80 139h123l-26 -63q66 -23 96.5 -60.5t30.5 -89.5q0 -74 -56.5 -122t-167.5 -48q-57 0 -90 4.5t-61 14.5v104z" />
<glyph unicode="&#xb9;" horiz-adv-x="569" />
<glyph unicode="&#xba;" horiz-adv-x="811" d="M53 1114q0 129 101.5 214t253.5 85q156 0 254 -84t98 -209v2q0 -133 -97.5 -217t-254.5 -84q-156 0 -255.5 83t-99.5 210zM283 1112q0 -82 31.5 -126t95.5 -44q61 0 90.5 46t29.5 138v2q0 82 -30.5 123t-96.5 41q-61 0 -90.5 -44t-29.5 -136z" />
<glyph unicode="&#xbb;" horiz-adv-x="1216" d="M25 14l325 455l-325 455h292l330 -455l-330 -455h-292zM573 14l326 455l-326 455h293l330 -455l-330 -455h-293z" />
<glyph unicode="&#xbc;" horiz-adv-x="569" />
<glyph unicode="&#xbd;" horiz-adv-x="1835" d="M207 -55l979 1470h192l-979 -1470h-192zM242 680v735h213v-735h-213zM1100 0v27q160 176 239.5 284.5t79.5 184.5q0 41 -27.5 68.5t-70.5 27.5q-45 0 -96 -25.5t-115 -79.5v177q49 25 90 41t78 22q18 4 36.5 5t37.5 1q127 0 200.5 -55t73.5 -152q0 -74 -54 -162 t-163 -210l260 2v-156h-569z" />
<glyph unicode="&#xbe;" horiz-adv-x="569" />
<glyph unicode="&#xbf;" horiz-adv-x="768" d="M90 -184q0 117 46 198.5t104 151.5q10 12 20 25.5t21 25.5q43 55 74.5 114.5t31.5 133.5v27q0 20 14.5 25t49.5 5q20 0 32.5 -4t20.5 -12q4 -4 11 -18.5t13 -34.5q8 -20 15.5 -46t11.5 -53q4 -16 5 -31.5t1 -29.5q0 -76 -24.5 -136.5t-55.5 -111.5q-25 -41 -45 -78 t-30 -73q-2 -8 -3.5 -18.5t-1.5 -20.5q0 -49 32 -77t89 -28q25 0 44.5 3t37.5 9q20 8 43 22.5t51 37.5h19l-51 -252q-41 -14 -76 -22.5t-70 -12.5q-23 -4 -45 -5t-47 -1q-158 0 -248 79t-90 208zM266 782q0 74 52.5 126.5t125.5 52.5q74 0 126.5 -52.5t52.5 -126.5 t-52.5 -126t-126.5 -52v2q-74 -2 -126 50t-52 126z" />
<glyph unicode="&#xc0;" horiz-adv-x="1599" d="M6 0l563 1397h404l620 -1397h-374l-115 276h-625l-104 -276h-369zM475 1831h338l152 -299h-152zM571 520h430l-225 543z" />
<glyph unicode="&#xc1;" horiz-adv-x="1599" d="M6 0l563 1397h404l620 -1397h-374l-115 276h-625l-104 -276h-369zM571 520h430l-225 543zM637 1532l151 299h338l-338 -299h-151z" />
<glyph unicode="&#xc2;" horiz-adv-x="1599" d="M6 0l563 1397h404l620 -1397h-374l-115 276h-625l-104 -276h-369zM457 1485l202 358h281l203 -358h-182l-160 178l-164 -178h-180zM571 520h430l-225 543z" />
<glyph unicode="&#xc3;" horiz-adv-x="1599" d="M6 0l563 1397h404l620 -1397h-374l-115 276h-625l-104 -276h-369zM401 1516q10 143 75 223t169 80q45 0 89 -17.5t85 -38.5q41 -20 79 -37.5t71 -17.5q37 0 59.5 27.5t30.5 83.5v2h139q-8 -150 -70.5 -231t-169.5 -81q-18 0 -37.5 3.5t-37.5 9.5q-27 8 -52.5 19t-50.5 24 q-41 20 -81 37.5t-70 17.5q-37 0 -61.5 -27.5t-30.5 -79.5zM571 520h430l-225 543z" />
<glyph unicode="&#xc4;" horiz-adv-x="1599" d="M6 0l563 1397h404l620 -1397h-374l-115 276h-625l-104 -276h-369zM459 1661q0 55 39 94t94 39v2q55 -2 94 -41t39 -94t-39 -94t-94 -39t-94 39t-39 94zM571 520h430l-225 543zM874 1661q0 55 39 94t95 39v2q55 -2 94 -41t39 -94t-39 -94t-94 -39t-94.5 39t-39.5 94z" />
<glyph unicode="&#xc5;" horiz-adv-x="1599" d="M6 0l563 1397h404l620 -1397h-374l-115 276h-625l-104 -276h-369zM571 520h430l-225 543zM592 1694q0 86 61.5 146.5t147.5 60.5v2q86 -2 146.5 -62.5t60.5 -146.5t-60.5 -147.5t-146.5 -61.5t-147.5 61.5t-61.5 147.5zM690 1694q0 -45 33 -79t78 -34q47 0 79.5 34 t32.5 79q0 47 -32.5 78.5t-79.5 31.5v2q-45 -2 -78 -33.5t-33 -78.5z" />
<glyph unicode="&#xc6;" horiz-adv-x="2197" d="M-12 0l835 1397h1241v-256h-651v-305h623v-256h-623v-324h670v-256h-1018v580h-373l-346 -580h-358zM846 836h219v378h-4z" />
<glyph unicode="&#xc7;" horiz-adv-x="1579" d="M96 692q0 281 219.5 501t620.5 220q145 0 274 -30.5t232 -92.5v-309q-115 63 -233.5 102t-247.5 39q-223 0 -364.5 -118.5t-141.5 -305.5q0 -186 140 -307t357 -121q59 0 111.5 8.5t103.5 22.5q66 20 135.5 51t155.5 72v2v-305q-49 -29 -95 -48.5t-89 -35.5 q-88 -31 -180.5 -43t-214.5 -12l-17 -37q66 -23 96.5 -61t30.5 -89q0 -74 -56 -122t-167 -48q-57 0 -90 4t-62 15v104h15h12q82 0 105.5 17.5t23.5 46.5q0 4 -1 9t-3 9q-6 14 -24.5 26.5t-55.5 12.5l72 125q-332 41 -497 247.5t-165 450.5z" />
<glyph unicode="&#xc8;" horiz-adv-x="1300" d="M160 0v1397h1016v-256h-668v-293h637v-256h-637v-336h682v-256h-1030zM326 1831h338l151 -299h-151z" />
<glyph unicode="&#xc9;" horiz-adv-x="1300" d="M160 0v1397h1016v-256h-668v-293h637v-256h-637v-336h682v-256h-1030zM487 1532l152 299h338l-338 -299h-152z" />
<glyph unicode="&#xca;" horiz-adv-x="1300" d="M160 0v1397h1016v-256h-668v-293h637v-256h-637v-336h682v-256h-1030zM307 1485l203 358h281l202 -358h-182l-160 178l-164 -178h-180z" />
<glyph unicode="&#xcb;" horiz-adv-x="1300" d="M160 0v1397h1016v-256h-668v-293h637v-256h-637v-336h682v-256h-1030zM309 1661q0 55 39 94t94 39v2q55 -2 94 -41t39 -94t-38.5 -94t-94.5 -39q-55 0 -94 39t-39 94zM725 1661q0 55 39 94t94 39v2q55 -2 94 -41t39 -94t-39 -94t-94 -39t-94 39t-39 94z" />
<glyph unicode="&#xcc;" horiz-adv-x="681" d="M16 1831h338l152 -299h-152zM168 0v1397h348v-1397h-348z" />
<glyph unicode="&#xcd;" horiz-adv-x="681" d="M168 0v1397h348v-1397h-348zM178 1532l152 299h338l-338 -299h-152z" />
<glyph unicode="&#xce;" horiz-adv-x="681" d="M-2 1485l203 358h280l203 -358h-182l-160 178l-164 -178h-180zM168 0v1397h348v-1397h-348z" />
<glyph unicode="&#xcf;" horiz-adv-x="681" d="M0 1661q0 55 39 94t94 39v2q55 -2 94 -41t39 -94t-39 -94t-94 -39t-94 39t-39 94zM168 0v1397h348v-1397h-348zM416 1661q0 55 39 94t94 39v2q55 -2 94 -41t39 -94t-39 -94t-94 -39t-94 39t-39 94z" />
<glyph unicode="&#xd0;" horiz-adv-x="1642" d="M-16 606v187h170v604h616q383 -2 577.5 -209t194.5 -494q0 -301 -196.5 -497.5t-614.5 -196.5h-577v606h-170zM502 256h227q231 -2 331.5 112.5t119.5 252.5q2 18 3 37.5t1 37.5q0 180 -105.5 311.5t-353.5 131.5l-223 2v-348h311v-187h-311v-350z" />
<glyph unicode="&#xd1;" horiz-adv-x="1728" d="M158 0v1397h319l746 -854v854h348v-1397h-293l-772 895v-895h-348zM467 1516q10 143 74.5 223t169.5 80q45 0 89 -17.5t85 -38.5q41 -20 78.5 -37.5t70.5 -17.5q37 0 59.5 27.5t30.5 83.5v2h140q-8 -150 -71 -231t-169 -81q-18 0 -37.5 3.5t-38.5 9.5q-27 8 -52.5 19 t-49.5 24q-41 20 -81 37.5t-71 17.5q-37 0 -61.5 -27.5t-30.5 -79.5z" />
<glyph unicode="&#xd2;" horiz-adv-x="569" />
<glyph unicode="&#xd3;" horiz-adv-x="1792" d="M96 684v7v5q0 25 2 49.5t6 51.5q35 231 236 423.5t557 192.5q352 0 552 -190.5t239 -417.5q4 -29 6 -55.5t2 -53.5v2q0 -270 -211 -493t-588 -223q-379 0 -588 219t-213 483zM455 696q0 -193 121.5 -309.5t320.5 -116.5t319.5 117t120.5 309v2q0 190 -120.5 307 t-319.5 117t-320.5 -116.5t-121.5 -309.5zM733 1532l152 299h338l-338 -299h-152z" />
<glyph unicode="&#xd4;" horiz-adv-x="1792" d="M96 684v7v5q0 25 2 49.5t6 51.5q35 231 236 423.5t557 192.5q352 0 552 -190.5t239 -417.5q4 -29 6 -55.5t2 -53.5v2q0 -270 -211 -493t-588 -223q-379 0 -588 219t-213 483zM455 696q0 -193 121.5 -309.5t320.5 -116.5t319.5 117t120.5 309v2q0 190 -120.5 307 t-319.5 117t-320.5 -116.5t-121.5 -309.5zM553 1485l203 358h280l203 -358h-182l-160 178l-164 -178h-180z" />
<glyph unicode="&#xd5;" horiz-adv-x="1792" d="M96 684v7v5q0 25 2 49.5t6 51.5q35 231 236 423.5t557 192.5q352 0 552 -190.5t239 -417.5q4 -29 6 -55.5t2 -53.5v2q0 -270 -211 -493t-588 -223q-379 0 -588 219t-213 483zM455 696q0 -193 121.5 -309.5t320.5 -116.5t319.5 117t120.5 309v2q0 190 -120.5 307 t-319.5 117t-320.5 -116.5t-121.5 -309.5zM498 1516q10 143 74.5 223t168.5 80q45 0 89 -17.5t85 -38.5q41 -20 79 -37.5t71 -17.5q37 0 59.5 27.5t30.5 83.5v2h139q-8 -150 -70.5 -231t-168.5 -81q-18 0 -38 3.5t-38 9.5q-27 8 -52.5 19t-49.5 24q-41 20 -81 37.5t-71 17.5 q-37 0 -61.5 -27.5t-30.5 -79.5z" />
<glyph unicode="&#xd6;" horiz-adv-x="1792" d="M96 684v7v5q0 25 2 49.5t6 51.5q35 231 236 423.5t557 192.5q352 0 552 -190.5t239 -417.5q4 -29 6 -55.5t2 -53.5v2q0 -270 -211 -493t-588 -223q-379 0 -588 219t-213 483zM455 696q0 -193 121.5 -309.5t320.5 -116.5t319.5 117t120.5 309v2q0 190 -120.5 307 t-319.5 117t-320.5 -116.5t-121.5 -309.5zM555 1661q0 55 39 94t94 39v2q55 -2 94 -41t39 -94t-39 -94t-94 -39t-94 39t-39 94zM971 1661q0 55 39 94t94 39v2q55 -2 94 -41t39 -94t-39 -94t-94 -39t-94 39t-39 94z" />
<glyph unicode="&#xd7;" horiz-adv-x="569" />
<glyph unicode="&#xd8;" horiz-adv-x="1792" d="M53 80l205 178q-70 82 -116 197.5t-46 240.5q0 25 2 49.5t6 51.5q37 231 238 423.5t557 192.5q145 0 268 -38t224 -107l172 157l141 -141l-170 -147q72 -88 117 -201t45 -240q0 -268 -210 -491t-587 -223q-150 0 -269.5 35.5t-226.5 105.5v2l-225 -201zM455 696 q0 -23 2 -47t6 -49q6 -31 16 -60.5t27 -58.5v2l645 576q-51 29 -112.5 46t-139.5 17q-199 0 -321.5 -116.5t-122.5 -309.5zM643 338q43 -31 108.5 -49.5t147.5 -18.5q199 0 318.5 117t119.5 309v21q0 10 -2 20q-4 49 -16 95.5t-33 80.5v2z" />
<glyph unicode="&#xd9;" horiz-adv-x="1685" d="M143 600v797h349v-803q0 -152 98 -238t248 -86q139 0 246.5 80t107.5 266v781h348v-793q0 -348 -206 -485t-492 -137q-303 0 -501 147t-198 471zM518 1831h338l152 -299h-152z" />
<glyph unicode="&#xda;" horiz-adv-x="1685" d="M143 600v797h349v-803q0 -152 98 -238t248 -86q139 0 246.5 80t107.5 266v781h348v-793q0 -348 -206 -485t-492 -137q-303 0 -501 147t-198 471zM680 1532l151 299h338l-338 -299h-151z" />
<glyph unicode="&#xdb;" horiz-adv-x="1685" d="M143 600v797h349v-803q0 -152 98 -238t248 -86q139 0 246.5 80t107.5 266v781h348v-793q0 -348 -206 -485t-492 -137q-303 0 -501 147t-198 471zM500 1485l202 358h281l203 -358h-182l-160 178l-164 -178h-180z" />
<glyph unicode="&#xdc;" horiz-adv-x="1685" d="M143 600v797h349v-803q0 -152 98 -238t248 -86q139 0 246.5 80t107.5 266v781h348v-793q0 -348 -206 -485t-492 -137q-303 0 -501 147t-198 471zM502 1661q0 55 39 94t94 39v2q55 -2 94 -41t39 -94t-39 -94t-94 -39t-94 39t-39 94zM918 1661q0 55 38.5 94t94.5 39v2 q55 -2 94 -41t39 -94t-39 -94t-94 -39t-94 39t-39 94z" />
<glyph unicode="&#xdd;" horiz-adv-x="569" />
<glyph unicode="&#xde;" horiz-adv-x="1343" d="M170 0v1397h348v-281h275q207 -2 318.5 -108.5t135.5 -233.5q4 -18 6 -36.5t2 -37.5q0 -16 -1 -33.5t-5 -33.5q-20 -133 -130.5 -243.5t-323.5 -110.5l-277 2v-281h-348zM518 537h162q121 -2 169 39.5t48 119.5q0 90 -57.5 126t-198.5 36l-123 2v-323z" />
<glyph unicode="&#xdf;" horiz-adv-x="1236" d="M133 0v975q0 244 139.5 341t313.5 97q221 0 354 -96t133 -258q0 -88 -48 -162t-132 -109q117 -45 177 -140t60 -240q0 -190 -114.5 -308t-298.5 -118q-37 0 -71 4t-68 14v190q2 -2 5 -3t5 -3q2 0 4 -1t4 -1q10 -4 19.5 -6t17.5 -2q90 0 143 74t53 196q0 127 -56 198 t-167 71h-4h-4h-4h-4v149q4 -2 7 -2h7q90 0 129 55.5t39 133.5q0 90 -45 139t-123 49q-104 0 -139 -73.5t-35 -186.5v-977h-297z" />
<glyph unicode="&#xe0;" horiz-adv-x="1087" d="M68 211q0 119 63.5 181.5t200.5 115.5q59 23 133 45t164 51v9v10q0 59 -37 99t-127 40q-25 0 -51.5 -4t-53.5 -10q-66 -18 -129 -55.5t-114 -88.5v244q92 55 194.5 84t214.5 29q178 0 289 -66t111 -221v-428q0 -37 13 -52.5t36 -15.5q16 0 38.5 8.5t73.5 44.5v2v-165 q-31 -20 -65.5 -36t-69.5 -26q-39 -10 -75.5 -17t-67.5 -7q-74 0 -112 23.5t-54 80.5q-61 -41 -116.5 -64.5t-108.5 -31.5q-20 -4 -42 -6t-44 -2q-113 0 -188.5 70.5t-75.5 158.5zM219 1384h338l152 -299h-152zM369 256q0 -41 28.5 -70.5t67.5 -29.5q12 0 24.5 2t22.5 4 q31 8 60.5 24.5t56.5 40.5v2v228q-39 -16 -73 -29.5t-60 -26.5q-63 -29 -95 -62.5t-32 -82.5z" />
<glyph unicode="&#xe1;" horiz-adv-x="1087" d="M68 211q0 119 63.5 181.5t200.5 115.5q59 23 133 45t164 51v9v10q0 59 -37 99t-127 40q-25 0 -51.5 -4t-53.5 -10q-66 -18 -129 -55.5t-114 -88.5v244q92 55 194.5 84t214.5 29q178 0 289 -66t111 -221v-428q0 -37 13 -52.5t36 -15.5q16 0 38.5 8.5t73.5 44.5v2v-165 q-31 -20 -65.5 -36t-69.5 -26q-39 -10 -75.5 -17t-67.5 -7q-74 0 -112 23.5t-54 80.5q-61 -41 -116.5 -64.5t-108.5 -31.5q-20 -4 -42 -6t-44 -2q-113 0 -188.5 70.5t-75.5 158.5zM369 256q0 -41 28.5 -70.5t67.5 -29.5q12 0 24.5 2t22.5 4q31 8 60.5 24.5t56.5 40.5v2v228 q-39 -16 -73 -29.5t-60 -26.5q-63 -29 -95 -62.5t-32 -82.5zM381 1085l151 299h338l-338 -299h-151z" />
<glyph unicode="&#xe2;" horiz-adv-x="1087" d="M68 211q0 119 63.5 181.5t200.5 115.5q59 23 133 45t164 51v9v10q0 59 -37 99t-127 40q-25 0 -51.5 -4t-53.5 -10q-66 -18 -129 -55.5t-114 -88.5v244q92 55 194.5 84t214.5 29q178 0 289 -66t111 -221v-428q0 -37 13 -52.5t36 -15.5q16 0 38.5 8.5t73.5 44.5v2v-165 q-31 -20 -65.5 -36t-69.5 -26q-39 -10 -75.5 -17t-67.5 -7q-74 0 -112 23.5t-54 80.5q-61 -41 -116.5 -64.5t-108.5 -31.5q-20 -4 -42 -6t-44 -2q-113 0 -188.5 70.5t-75.5 158.5zM201 1038l202 359h281l203 -359h-182l-160 179l-164 -179h-180zM369 256q0 -41 28.5 -70.5 t67.5 -29.5q12 0 24.5 2t22.5 4q31 8 60.5 24.5t56.5 40.5v2v228q-39 -16 -73 -29.5t-60 -26.5q-63 -29 -95 -62.5t-32 -82.5z" />
<glyph unicode="&#xe3;" horiz-adv-x="1087" d="M68 211q0 119 63.5 181.5t200.5 115.5q59 23 133 45t164 51v9v10q0 59 -37 99t-127 40q-25 0 -51.5 -4t-53.5 -10q-66 -18 -129 -55.5t-114 -88.5v244q92 55 194.5 84t214.5 29q178 0 289 -66t111 -221v-428q0 -37 13 -52.5t36 -15.5q16 0 38.5 8.5t73.5 44.5v2v-165 q-31 -20 -65.5 -36t-69.5 -26q-39 -10 -75.5 -17t-67.5 -7q-74 0 -112 23.5t-54 80.5q-61 -41 -116.5 -64.5t-108.5 -31.5q-20 -4 -42 -6t-44 -2q-113 0 -188.5 70.5t-75.5 158.5zM145 1069q10 143 75 223t169 80q45 0 89 -17.5t85 -37.5t79 -37.5t71 -17.5q37 0 59.5 27.5 t30.5 82.5v2h139q-8 -150 -70.5 -230.5t-169.5 -80.5q-18 0 -37.5 3t-37.5 9q-27 8 -51.5 19.5t-49.5 23.5q-43 20 -83 38t-70 18q-37 0 -61.5 -28t-30.5 -79zM369 256q0 -41 28.5 -70.5t67.5 -29.5q12 0 24.5 2t22.5 4q31 8 60.5 24.5t56.5 40.5v2v228q-39 -16 -73 -29.5 t-60 -26.5q-63 -29 -95 -62.5t-32 -82.5z" />
<glyph unicode="&#xe4;" horiz-adv-x="1087" d="M68 211q0 119 63.5 181.5t200.5 115.5q59 23 133 45t164 51v9v10q0 59 -37 99t-127 40q-25 0 -51.5 -4t-53.5 -10q-66 -18 -129 -55.5t-114 -88.5v244q92 55 194.5 84t214.5 29q178 0 289 -66t111 -221v-428q0 -37 13 -52.5t36 -15.5q16 0 38.5 8.5t73.5 44.5v2v-165 q-31 -20 -65.5 -36t-69.5 -26q-39 -10 -75.5 -17t-67.5 -7q-74 0 -112 23.5t-54 80.5q-61 -41 -116.5 -64.5t-108.5 -31.5q-20 -4 -42 -6t-44 -2q-113 0 -188.5 70.5t-75.5 158.5zM203 1214q0 55 39 94.5t94 39.5v2q55 -2 94 -41t39 -95q0 -55 -39 -94t-94 -39t-94 39 t-39 94zM369 256q0 -41 28.5 -70.5t67.5 -29.5q12 0 24.5 2t22.5 4q31 8 60.5 24.5t56.5 40.5v2v228q-39 -16 -73 -29.5t-60 -26.5q-63 -29 -95 -62.5t-32 -82.5zM618 1214q0 55 39 94.5t95 39.5v2q55 -2 94 -41t39 -95q0 -55 -39 -94t-94 -39t-94.5 39t-39.5 94z" />
<glyph unicode="&#xe5;" horiz-adv-x="1087" d="M68 211q0 119 63.5 181.5t200.5 115.5q59 23 133 45t164 51v9v10q0 59 -37 99t-127 40q-25 0 -51.5 -4t-53.5 -10q-66 -18 -129 -55.5t-114 -88.5v244q92 55 194.5 84t214.5 29q178 0 289 -66t111 -221v-428q0 -37 13 -52.5t36 -15.5q16 0 38.5 8.5t73.5 44.5v2v-165 q-31 -20 -65.5 -36t-69.5 -26q-39 -10 -75.5 -17t-67.5 -7q-74 0 -112 23.5t-54 80.5q-61 -41 -116.5 -64.5t-108.5 -31.5q-20 -4 -42 -6t-44 -2q-113 0 -188.5 70.5t-75.5 158.5zM336 1247q0 86 61.5 146.5t147.5 60.5v2q86 -2 146.5 -62.5t60.5 -146.5t-60.5 -147.5 t-146.5 -61.5t-147.5 61.5t-61.5 147.5zM369 256q0 -41 28.5 -70.5t67.5 -29.5q12 0 24.5 2t22.5 4q31 8 60.5 24.5t56.5 40.5v2v228q-39 -16 -73 -29.5t-60 -26.5q-63 -29 -95 -62.5t-32 -82.5zM434 1247q0 -45 33 -78.5t78 -33.5q47 0 79.5 33.5t32.5 78.5q0 47 -32.5 79 t-79.5 32v2q-45 -2 -78 -34t-33 -79z" />
<glyph unicode="&#xe6;" horiz-adv-x="1599" d="M74 215q0 158 134 230.5t331 127.5q25 6 51 13.5t53 15.5v9v10q0 68 -47 104.5t-121 36.5q-37 0 -78 -9.5t-82 -25.5q-55 -20 -107 -53t-93 -72v238q100 57 197.5 89t191.5 32q55 0 99 -7.5t85 -25.5q29 -12 59.5 -29.5t63.5 -42.5q61 53 129 79t152 26q180 0 311 -135.5 t131 -360.5v-11v-10q-2 -4 -2 -9v-11l-592 2v-7v-5v-6v-7q0 -117 65.5 -181t168.5 -64q100 0 186 42t158 105v2v-194q-88 -68 -189.5 -98.5t-220.5 -30.5q-115 0 -215 32.5t-168 94.5q-6 -4 -11 -8.5t-12 -8.5q-84 -59 -170 -84.5t-190 -25.5q-125 0 -196.5 69.5 t-71.5 163.5zM375 254q0 -43 27.5 -70.5t66.5 -27.5q37 0 78 16t96 51v2v232q-133 -39 -200.5 -89.5t-67.5 -113.5zM940 580v2h307q-8 100 -48 151t-109 51q-70 0 -108 -52t-42 -152z" />
<glyph unicode="&#xe7;" horiz-adv-x="1024" d="M82 467q0 217 150.5 355.5t383.5 138.5q37 0 79 -5.5t85 -13.5q41 -8 80 -19.5t74 -23.5v-219q-25 10 -51.5 21.5t-53.5 19.5q-35 10 -70.5 15t-66.5 5q-133 0 -213 -73.5t-80 -198.5t78 -202t205 -77h11h12q47 4 101 18.5t142 47.5v2v-213q-37 -16 -71.5 -26.5 t-67.5 -18.5q-47 -8 -96 -13t-105 -5l-12 -29q66 -23 96.5 -60.5t30.5 -89.5q0 -74 -56.5 -122t-166.5 -48q-57 0 -90 4.5t-62 14.5v104h14h13q82 0 105.5 17.5t23.5 46.5q0 4 -1 9t-3 9q-6 14 -24.5 26.5t-55.5 12.5l67 119q-186 33 -295.5 158t-109.5 313z" />
<glyph unicode="&#xe8;" d="M76 467q0 217 140 355.5t357 138.5q201 0 344.5 -132.5t143.5 -375.5v-16v-15l-678 2q8 -127 90 -197.5t221 -70.5q33 0 62.5 4t58.5 10q53 14 107.5 44t121.5 77v2v-187q-10 -8 -19 -15t-17 -11q-119 -76 -226.5 -87t-158.5 -11q-248 0 -397.5 132t-149.5 353zM242 1384 h338l151 -299h-151zM389 578v2h410q-8 94 -63.5 149t-141.5 55q-88 0 -141.5 -54t-63.5 -152z" />
<glyph unicode="&#xe9;" d="M76 467q0 217 140 355.5t357 138.5q201 0 344.5 -132.5t143.5 -375.5v-16v-15l-678 2q8 -127 90 -197.5t221 -70.5q33 0 62.5 4t58.5 10q53 14 107.5 44t121.5 77v2v-187q-10 -8 -19 -15t-17 -11q-119 -76 -226.5 -87t-158.5 -11q-248 0 -397.5 132t-149.5 353zM389 578 v2h410q-8 94 -63.5 149t-141.5 55q-88 0 -141.5 -54t-63.5 -152zM403 1085l152 299h338l-338 -299h-152z" />
<glyph unicode="&#xea;" d="M76 467q0 217 140 355.5t357 138.5q201 0 344.5 -132.5t143.5 -375.5v-16v-15l-678 2q8 -127 90 -197.5t221 -70.5q33 0 62.5 4t58.5 10q53 14 107.5 44t121.5 77v2v-187q-10 -8 -19 -15t-17 -11q-119 -76 -226.5 -87t-158.5 -11q-248 0 -397.5 132t-149.5 353zM223 1038 l203 359h281l202 -359h-182l-160 179l-164 -179h-180zM389 578v2h410q-8 94 -63.5 149t-141.5 55q-88 0 -141.5 -54t-63.5 -152z" />
<glyph unicode="&#xeb;" d="M76 467q0 217 140 355.5t357 138.5q201 0 344.5 -132.5t143.5 -375.5v-16v-15l-678 2q8 -127 90 -197.5t221 -70.5q33 0 62.5 4t58.5 10q53 14 107.5 44t121.5 77v2v-187q-10 -8 -19 -15t-17 -11q-119 -76 -226.5 -87t-158.5 -11q-248 0 -397.5 132t-149.5 353zM225 1214 q0 55 39 94.5t94 39.5v2q55 -2 94.5 -41t39.5 -95q0 -55 -39 -94t-95 -39q-55 0 -94 39t-39 94zM389 578v2h410q-8 94 -63.5 149t-141.5 55q-88 0 -141.5 -54t-63.5 -152zM641 1214q0 55 39 94.5t94 39.5v2q55 -2 94 -41t39 -95q0 -55 -39 -94t-94 -39t-94 39t-39 94z" />
<glyph unicode="&#xec;" horiz-adv-x="555" d="M-47 1384h338l151 -299h-151zM129 0v944h297v-944h-297z" />
<glyph unicode="&#xed;" horiz-adv-x="555" d="M115 1085l151 299h338l-338 -299h-151zM129 0v944h297v-944h-297z" />
<glyph unicode="&#xee;" horiz-adv-x="555" d="M-66 1038l203 359h281l203 -359h-183l-159 179l-164 -179h-181zM129 0v944h297v-944h-297z" />
<glyph unicode="&#xef;" horiz-adv-x="555" d="M-61 1214q0 55 37.5 94.5t93.5 39.5v2q55 -2 94 -41t39 -95q0 -55 -39 -94t-94 -39t-93 39t-38 94zM129 0v944h297v-944h-297zM352 1214q0 55 39 94.5t94 39.5v2q55 -2 94 -41t39 -95q0 -55 -38.5 -94t-94.5 -39q-55 0 -94 39t-39 94z" />
<glyph unicode="&#xf0;" horiz-adv-x="1259" d="M94 471q0 205 137.5 347.5t337.5 142.5q20 0 40 -1.5t38 -5.5q33 -6 69 -21t81 -46l4 4q-10 25 -27.5 54.5t-42.5 58.5q-23 29 -50.5 58.5t-55.5 55.5l-297 -102l-45 123l225 80q-29 20 -56.5 36.5t-50.5 26.5l187 133q51 -23 97 -48.5t87 -53.5l281 102l45 -127 l-205 -71q139 -139 202.5 -311.5t63.5 -354.5q0 -254 -110.5 -378t-241.5 -167q-47 -12 -92 -18t-86 -6q-231 0 -383 133t-152 356zM412 471q0 -182 66.5 -248.5t150.5 -66.5q104 0 158.5 83t54.5 238v2q0 137 -50.5 221t-162.5 84q-96 0 -156.5 -76.5t-60.5 -236.5z" />
<glyph unicode="&#xf1;" horiz-adv-x="1193" d="M123 0v944h297v-135l9 9l9 9q66 70 135.5 102t153.5 32q23 0 46.5 -3.5t45.5 -7.5q94 -23 173 -103.5t79 -248.5v-598h-297v575q0 98 -42 142.5t-105 44.5q-25 0 -47.5 -6t-44.5 -21q-27 -18 -54.5 -49t-60.5 -80v-606h-297zM199 1069q10 143 74.5 223t168.5 80 q45 0 89 -17.5t85 -37.5t79 -37.5t71 -17.5q37 0 59.5 27.5t30.5 82.5v2h139q-8 -150 -70.5 -230.5t-168.5 -80.5q-18 0 -38 3t-38 9q-27 8 -52.5 19.5t-49.5 23.5q-43 20 -82 38t-70 18q-37 0 -61.5 -28t-30.5 -79z" />
<glyph unicode="&#xf2;" horiz-adv-x="1216" d="M76 471q0 242 162.5 366t371.5 124q33 0 66 -3.5t67 -11.5q150 -31 274 -143.5t124 -333.5v2q0 -211 -110.5 -319.5t-242.5 -145.5q-47 -12 -92 -18t-86 -6q-231 0 -382.5 133t-151.5 356zM285 1384h338l151 -299h-151zM393 471q0 -182 66.5 -248.5t150.5 -66.5 q104 0 158.5 83t54.5 238v2q0 137 -50 221t-163 84q-96 0 -156.5 -76.5t-60.5 -236.5z" />
<glyph unicode="&#xf3;" horiz-adv-x="1216" d="M76 471q0 242 162.5 366t371.5 124q33 0 66 -3.5t67 -11.5q150 -31 274 -143.5t124 -333.5v2q0 -211 -110.5 -319.5t-242.5 -145.5q-47 -12 -92 -18t-86 -6q-231 0 -382.5 133t-151.5 356zM393 471q0 -182 66.5 -248.5t150.5 -66.5q104 0 158.5 83t54.5 238v2 q0 137 -50 221t-163 84q-96 0 -156.5 -76.5t-60.5 -236.5zM446 1085l152 299h338l-338 -299h-152z" />
<glyph unicode="&#xf4;" horiz-adv-x="1216" d="M76 471q0 242 162.5 366t371.5 124q33 0 66 -3.5t67 -11.5q150 -31 274 -143.5t124 -333.5v2q0 -211 -110.5 -319.5t-242.5 -145.5q-47 -12 -92 -18t-86 -6q-231 0 -382.5 133t-151.5 356zM266 1038l203 359h281l202 -359h-182l-160 179l-164 -179h-180zM393 471 q0 -182 66.5 -248.5t150.5 -66.5q104 0 158.5 83t54.5 238v2q0 137 -50 221t-163 84q-96 0 -156.5 -76.5t-60.5 -236.5z" />
<glyph unicode="&#xf5;" horiz-adv-x="1216" d="M76 471q0 242 162.5 366t371.5 124q33 0 66 -3.5t67 -11.5q150 -31 274 -143.5t124 -333.5v2q0 -211 -110.5 -319.5t-242.5 -145.5q-47 -12 -92 -18t-86 -6q-231 0 -382.5 133t-151.5 356zM211 1069q10 143 74.5 223t169.5 80q45 0 89 -17.5t85 -37.5t78.5 -37.5 t70.5 -17.5q37 0 59.5 27.5t30.5 82.5v2h140q-8 -150 -71 -230.5t-169 -80.5q-18 0 -37.5 3t-38.5 9q-27 8 -52.5 19.5t-49.5 23.5q-41 20 -81 38t-71 18q-37 0 -61.5 -28t-30.5 -79zM393 471q0 -182 66.5 -248.5t150.5 -66.5q104 0 158.5 83t54.5 238v2q0 137 -50 221 t-163 84q-96 0 -156.5 -76.5t-60.5 -236.5z" />
<glyph unicode="&#xf6;" horiz-adv-x="1216" d="M76 471q0 242 162.5 366t371.5 124q33 0 66 -3.5t67 -11.5q150 -31 274 -143.5t124 -333.5v2q0 -211 -110.5 -319.5t-242.5 -145.5q-47 -12 -92 -18t-86 -6q-231 0 -382.5 133t-151.5 356zM268 1214q0 55 39 94.5t94 39.5v2q55 -2 94.5 -41t39.5 -95q0 -55 -39 -94 t-95 -39q-55 0 -94 39t-39 94zM393 471q0 -182 66.5 -248.5t150.5 -66.5q104 0 158.5 83t54.5 238v2q0 137 -50 221t-163 84q-96 0 -156.5 -76.5t-60.5 -236.5zM684 1214q0 55 39 94.5t94 39.5v2q55 -2 94 -41t39 -95q0 -55 -39 -94t-94 -39t-94 39t-39 94z" />
<glyph unicode="&#xf7;" horiz-adv-x="569" />
<glyph unicode="&#xf8;" horiz-adv-x="1216" d="M76 471q0 242 162.5 366t371.5 124q27 0 55.5 -2.5t57.5 -8.5q41 -6 81 -18t77 -31l143 168l109 -104l-127 -150q59 -57 97 -141t38 -205q0 -209 -110.5 -317.5t-242.5 -145.5q-47 -12 -92 -18t-86 -6q-84 0 -154.5 16t-117.5 43v2l-133 -154l-105 93l121 141 q-61 57 -103 143t-42 205zM393 471q0 -43 3 -74.5t10 -58.5v2l337 399q-25 20 -59.5 32.5t-73.5 12.5q-96 0 -156.5 -76.5t-60.5 -236.5zM477 205q18 -20 46 -31.5t59 -15.5q8 -2 15 -2h13q104 0 158.5 83t54.5 238q0 29 -2 58.5t-8 58.5v2z" />
<glyph unicode="&#xf9;" horiz-adv-x="1193" d="M123 338v606h297v-584q0 -102 46 -142t103 -40q68 0 124.5 46t78.5 116v604h299v-944h-297v135q-4 -8 -9 -13l-11 -11q-66 -70 -134.5 -99.5t-150.5 -29.5q-139 0 -242.5 87t-103.5 269zM272 1384h338l152 -299h-152z" />
<glyph unicode="&#xfa;" horiz-adv-x="1193" d="M123 338v606h297v-584q0 -102 46 -142t103 -40q68 0 124.5 46t78.5 116v604h299v-944h-297v135q-4 -8 -9 -13l-11 -11q-66 -70 -134.5 -99.5t-150.5 -29.5q-139 0 -242.5 87t-103.5 269zM434 1085l152 299h338l-338 -299h-152z" />
<glyph unicode="&#xfb;" horiz-adv-x="1193" d="M123 338v606h297v-584q0 -102 46 -142t103 -40q68 0 124.5 46t78.5 116v604h299v-944h-297v135q-4 -8 -9 -13l-11 -11q-66 -70 -134.5 -99.5t-150.5 -29.5q-139 0 -242.5 87t-103.5 269zM254 1038l203 359h280l203 -359h-182l-160 179l-164 -179h-180z" />
<glyph unicode="&#xfc;" horiz-adv-x="1193" d="M123 338v606h297v-584q0 -102 46 -142t103 -40q68 0 124.5 46t78.5 116v604h299v-944h-297v135q-4 -8 -9 -13l-11 -11q-66 -70 -134.5 -99.5t-150.5 -29.5q-139 0 -242.5 87t-103.5 269zM256 1214q0 55 39 94.5t94 39.5v2q55 -2 94 -41t39 -95q0 -55 -39 -94t-94 -39 t-94 39t-39 94zM672 1214q0 55 39 94.5t94 39.5v2q55 -2 94 -41t39 -95q0 -55 -39 -94t-94 -39t-94 39t-39 94z" />
<glyph unicode="&#xfd;" horiz-adv-x="569" />
<glyph unicode="&#xfe;" horiz-adv-x="1193" d="M117 -471v1868h297v-535q63 51 128.5 75t141.5 24q184 0 311 -138.5t127 -341.5q0 -227 -127 -363t-338 -136q-14 0 -28.5 1t-30.5 3q-49 6 -96 20t-88 39v-516h-297zM414 242q23 -18 44 -29.5t42 -19.5q20 -8 41.5 -11.5t44.5 -3.5q109 0 172 78t63 209q0 135 -58 210 t-165 75q-18 0 -34.5 -2.5t-33.5 -6.5q-27 -8 -54 -24.5t-62 -42.5v2v-434z" />
<glyph unicode="&#xff;" horiz-adv-x="1044" d="M2 944h317l199 -485l213 485h311l-632 -1397h-316l277 607zM182 1214q0 55 39 94.5t94 39.5v2q55 -2 94.5 -41t39.5 -95q0 -55 -39 -94t-95 -39q-55 0 -94 39t-39 94zM598 1214q0 55 39 94.5t94 39.5v2q55 -2 94 -41t39 -95q0 -55 -39 -94t-94 -39t-94 39t-39 94z" />
<glyph unicode="&#x152;" horiz-adv-x="2240" d="M96 700q0 313 207 504t571 191l1244 2v-256h-654v-293h625v-256h-625v-336h668v-256h-1255q-338 0 -559.5 180t-221.5 520zM455 696q0 -180 129 -311t364 -131l168 2v885h-168q-240 -2 -366.5 -135.5t-126.5 -309.5z" />
<glyph unicode="&#x153;" horiz-adv-x="1792" d="M74 475q0 209 153.5 347.5t384.5 138.5q53 0 99.5 -7.5t91.5 -21.5q37 -14 76 -34.5t82 -49.5q39 31 71.5 52.5t63.5 35.5q35 12 69.5 18.5t79.5 6.5q201 0 344.5 -131.5t141.5 -374.5v-16v-15l-609 2v-7v-7q0 -115 73 -185.5t177 -70.5q31 0 63.5 5t65.5 15 q55 18 109.5 50t103.5 77v2v-203q-76 -53 -172 -86.5t-201 -33.5q-98 0 -190 29.5t-176 88.5q-78 -57 -173 -87.5t-194 -30.5q-225 0 -379.5 140t-154.5 353zM391 467q0 -156 54.5 -233.5t162.5 -77.5q111 0 164 80.5t53 252.5v3q0 139 -57 215.5t-164 76.5 q-106 0 -159.5 -79.5t-53.5 -237.5zM1122 580v2h336q0 78 -44 140t-130 62q-72 0 -117 -56t-45 -148z" />
<glyph unicode="&#x178;" horiz-adv-x="1449" d="M0 1397h422l303 -439l305 439h420l-551 -744v-653h-348v653zM385 1661q0 55 39 94t94 39v2q55 -2 94 -41t39 -94t-39 -94t-94 -39t-94 39t-39 94zM801 1661q0 55 39 94t94 39v2q55 -2 94 -41t39 -94t-39 -94t-94 -39t-94 39t-39 94z" />
<glyph unicode="&#x2c6;" horiz-adv-x="681" d="M-57 1069q12 143 75.5 223t167.5 80q45 0 89 -17.5t85 -37.5t79 -37.5t71 -17.5q37 0 59.5 27.5t30.5 82.5v2h139q-8 -150 -70.5 -230.5t-168.5 -80.5q-18 0 -38 3t-38 9q-27 8 -51.5 19.5t-48.5 23.5q-43 20 -83 38t-71 18q-37 0 -61.5 -28t-30.5 -79z" />
<glyph unicode="&#x2dc;" horiz-adv-x="681" d="M-2 1038l203 359h280l203 -359h-182l-160 179l-164 -179h-180z" />
<glyph unicode="&#x2000;" horiz-adv-x="950" />
<glyph unicode="&#x2001;" horiz-adv-x="1902" />
<glyph unicode="&#x2002;" horiz-adv-x="950" />
<glyph unicode="&#x2003;" horiz-adv-x="1902" />
<glyph unicode="&#x2004;" horiz-adv-x="632" />
<glyph unicode="&#x2005;" horiz-adv-x="475" />
<glyph unicode="&#x2006;" horiz-adv-x="315" />
<glyph unicode="&#x2007;" horiz-adv-x="315" />
<glyph unicode="&#x2008;" horiz-adv-x="237" />
<glyph unicode="&#x2009;" horiz-adv-x="378" />
<glyph unicode="&#x200a;" horiz-adv-x="104" />
<glyph unicode="&#x2010;" horiz-adv-x="681" d="M74 338v272h534v-272h-534z" />
<glyph unicode="&#x2011;" horiz-adv-x="681" d="M74 338v272h534v-272h-534z" />
<glyph unicode="&#x2012;" horiz-adv-x="681" d="M74 338v272h534v-272h-534z" />
<glyph unicode="&#x2013;" horiz-adv-x="1024" d="M-12 338v270h1048v-270h-1048z" />
<glyph unicode="&#x2014;" horiz-adv-x="2048" d="M-12 338v270h2072v-270h-2072z" />
<glyph unicode="&#x2018;" horiz-adv-x="555" d="M92 1008q0 154 105.5 272.5t255.5 132.5v2v-63q-37 -35 -62.5 -92.5t-32.5 -118.5v-12v-11v-8v-8q0 -4 1 -8t1 -9q53 -20 79 -56t26 -93q0 -70 -48 -116t-120 -46q-90 0 -147.5 66t-57.5 168z" />
<glyph unicode="&#x2019;" horiz-adv-x="555" d="M90 1251q0 72 48 117t120 45q90 0 147.5 -65.5t57.5 -167.5q0 -154 -104.5 -271.5t-256.5 -134.5v2v64q37 31 62.5 88t32.5 119v11v11v8v8q0 4 -1 8.5t-1 8.5q-53 23 -79 57.5t-26 91.5z" />
<glyph unicode="&#x201a;" horiz-adv-x="569" />
<glyph unicode="&#x201c;" horiz-adv-x="1153" d="M117 1008q0 154 105.5 272.5t254.5 132.5v2v-63q-37 -35 -62.5 -92.5t-31.5 -118.5v-12v-11v-8v-8q0 -4 1 -8t1 -9q53 -20 78.5 -56t25.5 -93q0 -70 -48 -116t-119 -46q-90 0 -147.5 66t-57.5 168zM686 1008q0 154 105.5 272.5t255.5 132.5v2v-63q-37 -35 -63 -92.5 t-32 -118.5v-12v-11v-8v-8q0 -4 1 -8t1 -9q53 -20 79 -56t26 -93q0 -70 -48 -116t-120 -46q-90 0 -147.5 66t-57.5 168z" />
<glyph unicode="&#x201d;" horiz-adv-x="1153" d="M94 1251q0 72 48 117t120 45q90 0 147.5 -65.5t57.5 -167.5q0 -154 -104.5 -271.5t-256.5 -134.5v2v64q37 31 63 88t32 119v11v11v8v8q0 4 -1 8.5t-1 8.5q-53 23 -79 57.5t-26 91.5zM664 1251q0 72 48 117t119 45q90 0 147.5 -65.5t57.5 -167.5q0 -154 -104.5 -271.5 t-255.5 -134.5v2v64q37 31 62.5 88t31.5 119v11v11v8v8q0 4 -1 8.5t-1 8.5q-53 23 -78.5 57.5t-25.5 91.5z" />
<glyph unicode="&#x201e;" horiz-adv-x="1153" d="M104 129q0 72 48.5 117t119.5 45q90 0 147.5 -65.5t57.5 -168.5q0 -152 -104.5 -270.5t-255.5 -132.5v63q37 33 62.5 90.5t31.5 118.5v12v11v8v8q0 4 -1 8t-1 9q-53 20 -79 55t-26 92zM676 129q0 72 48 117t120 45q90 0 147.5 -65.5t57.5 -168.5q0 -152 -104.5 -270.5 t-256.5 -132.5v63q37 33 62.5 90.5t31.5 118.5v12v11v8v8q0 4 -1 8t-1 9q-53 20 -78.5 55t-25.5 92z" />
<glyph unicode="&#x2022;" horiz-adv-x="724" d="M66 696q0 123 86 209t208 86v2q123 -2 209 -88t86 -209t-86 -209t-209 -86t-208.5 86t-85.5 209z" />
<glyph unicode="&#x2026;" horiz-adv-x="2048" d="M164 158q0 74 52 126t126 52v2q74 -2 126 -54.5t52 -125.5q0 -74 -52 -125t-126 -51t-126 51t-52 125zM846 158q0 74 52 126t126 52v2q74 -2 126 -54.5t52 -125.5q0 -74 -52 -125t-126 -51t-126 51t-52 125zM1528 158q0 74 52 126t126 52v2q74 -2 126 -54.5t52 -125.5 q0 -74 -52 -125t-126 -51t-126 51t-52 125z" />
<glyph unicode="&#x202f;" horiz-adv-x="378" />
<glyph unicode="&#x2039;" horiz-adv-x="661" d="M18 469l330 455h293l-326 -455l326 -455h-293z" />
<glyph unicode="&#x203a;" horiz-adv-x="661" d="M20 14l326 455l-326 455h293l330 -455l-330 -455h-293z" />
<glyph unicode="&#x205f;" horiz-adv-x="475" />
<glyph unicode="&#x2122;" horiz-adv-x="2048" d="M217 1323v143h664v-143h-246v-676h-166v676h-252zM979 647v819h260l147 -565h5l147 565h260v-819h-158v653h-4l-174 -653h-149l-172 653h-4v-653h-158z" />
<glyph unicode="&#xe000;" horiz-adv-x="945" d="M0 945h945v-945h-945v945z" />
<glyph unicode="&#xfb01;" horiz-adv-x="1173" d="M731 1249q0 68 48 116t115 48v2q68 -2 116 -50t48 -116t-48 -116t-116 -48t-115.5 48t-47.5 116zM747 0v944h297v-944h-297zM31 741v203h135v47q0 207 116.5 314.5t297.5 107.5q16 0 34.5 -1t36.5 -3q14 -2 27.5 -3t28.5 -3l28 -4q14 -2 25 -4v-238q-49 4 -73.5 7 t-45.5 3h-7h-7q-70 0 -117 -35.5t-47 -130.5v-57h135v-203h-135v-741h-297v741h-135z" />
<glyph unicode="&#xfb02;" horiz-adv-x="1173" d="M747 0v1397h297v-1397h-297zM31 741v203h135v47q0 207 116.5 314.5t297.5 107.5q16 0 34.5 -1t36.5 -3q14 -2 27.5 -3t28.5 -3l28 -4q14 -2 25 -4v-238q-49 4 -73.5 7t-45.5 3h-7h-7q-70 0 -117 -35.5t-47 -130.5v-57h135v-203h-135v-741h-297v741h-135z" />
<glyph unicode="&#xfb03;" horiz-adv-x="1792" d="M1350 1249q0 68 48 116t115 48v2q68 -2 116 -50t48 -116t-48 -116t-116 -48t-115.5 48t-47.5 116zM1366 0v944h297v-944h-297zM649 741v203h135v47q0 207 116.5 314.5t297.5 107.5q16 0 34.5 -1t36.5 -3q14 -2 27.5 -3t28.5 -3l28 -4q14 -2 25 -4v-238q-49 4 -73.5 7 t-45.5 3h-7h-7q-70 0 -117 -35.5t-47 -130.5v-57h135v-203h-135v-741h-297v741h-135zM31 741v203h135v47q0 207 116.5 314.5t297.5 107.5q16 0 34.5 -1t36.5 -3q14 -2 27.5 -3t28.5 -3l28 -4q14 -2 25 -4v-238q-49 4 -73.5 7t-45.5 3h-7h-7q-70 0 -117 -35.5t-47 -130.5v-57 h135v-203h-135v-741h-297v741h-135z" />
<glyph unicode="&#xfb04;" horiz-adv-x="1792" d="M1366 0v1397h297v-1397h-297zM649 741v203h135v47q0 207 116.5 314.5t297.5 107.5q16 0 34.5 -1t36.5 -3q14 -2 27.5 -3t28.5 -3l28 -4q14 -2 25 -4v-238q-49 4 -73.5 7t-45.5 3h-7h-7q-70 0 -117 -35.5t-47 -130.5v-57h135v-203h-135v-741h-297v741h-135zM31 741v203 h135v47q0 207 116.5 314.5t297.5 107.5q16 0 34.5 -1t36.5 -3q14 -2 27.5 -3t28.5 -3l28 -4q14 -2 25 -4v-238q-49 4 -73.5 7t-45.5 3h-7h-7q-70 0 -117 -35.5t-47 -130.5v-57h135v-203h-135v-741h-297v741h-135z" />
</font>
</defs>
</svg>
